<svg width="1590" height="1036" xmlns="http://www.w3.org/2000/svg" xmlns:xlink="http://www.w3.org/1999/xlink" overflow="hidden"><defs><clipPath id="clip0"><rect x="2956" y="3116" width="1590" height="1036"/></clipPath><clipPath id="clip1"><rect x="2960" y="3116" width="1584" height="1034"/></clipPath><clipPath id="clip2"><rect x="2960" y="3116" width="1584" height="1034"/></clipPath><clipPath id="clip3"><rect x="2960" y="3116" width="1584" height="1034"/></clipPath><clipPath id="clip4"><rect x="2960" y="3116" width="1584" height="1034"/></clipPath><clipPath id="clip5"><rect x="2960" y="3116" width="1584" height="1034"/></clipPath><clipPath id="clip6"><rect x="2960" y="3116" width="1584" height="1034"/></clipPath><clipPath id="clip7"><rect x="2960" y="3116" width="1584" height="1034"/></clipPath><clipPath id="clip8"><rect x="2960" y="3116" width="1584" height="1034"/></clipPath><clipPath id="clip9"><rect x="3170" y="3154" width="1354" height="842"/></clipPath><clipPath id="clip10"><rect x="2960" y="3116" width="1584" height="1034"/></clipPath><clipPath id="clip11"><rect x="3170" y="3154" width="1354" height="842"/></clipPath><clipPath id="clip12"><rect x="2960" y="3116" width="1584" height="1034"/></clipPath><clipPath id="clip13"><rect x="3170" y="3154" width="1354" height="842"/></clipPath><clipPath id="clip14"><rect x="2960" y="3116" width="1584" height="1034"/></clipPath><clipPath id="clip15"><rect x="3170" y="3154" width="1354" height="842"/></clipPath><clipPath id="clip16"><rect x="2960" y="3116" width="1584" height="1034"/></clipPath><clipPath id="clip17"><rect x="3170" y="3154" width="1354" height="842"/></clipPath><clipPath id="clip18"><rect x="2960" y="3116" width="1584" height="1034"/></clipPath><clipPath id="clip19"><rect x="3170" y="3154" width="1354" height="842"/></clipPath><clipPath id="clip20"><rect x="2960" y="3116" width="1584" height="1034"/></clipPath><clipPath id="clip21"><rect x="3170" y="3154" width="1354" height="842"/></clipPath><clipPath id="clip22"><rect x="3170" y="3154" width="1354" height="842"/></clipPath><clipPath id="clip23"><rect x="3170" y="3154" width="1354" height="842"/></clipPath><clipPath id="clip24"><rect x="2960" y="3116" width="1584" height="1034"/></clipPath><clipPath id="clip25"><rect x="2960" y="3116" width="1584" height="1034"/></clipPath><clipPath id="clip26"><rect x="2960" y="3116" width="1584" height="1034"/></clipPath><clipPath id="clip27"><rect x="2960" y="3116" width="1584" height="1034"/></clipPath><clipPath id="clip28"><rect x="2960" y="3116" width="1584" height="1034"/></clipPath><clipPath id="clip29"><rect x="2960" y="3116" width="1584" height="1034"/></clipPath><clipPath id="clip30"><rect x="2960" y="3116" width="1584" height="1034"/></clipPath><clipPath id="clip31"><rect x="2960" y="3116" width="1584" height="1034"/></clipPath><clipPath id="clip32"><rect x="2960" y="3116" width="1584" height="1034"/></clipPath><clipPath id="clip33"><rect x="2960" y="3116" width="1584" height="1034"/></clipPath><clipPath id="clip34"><rect x="2960" y="3116" width="1584" height="1034"/></clipPath><clipPath id="clip35"><rect x="2960" y="3116" width="1584" height="1034"/></clipPath><clipPath id="clip36"><rect x="2960" y="3116" width="1584" height="1034"/></clipPath><clipPath id="clip37"><rect x="2960" y="3116" width="1584" height="1034"/></clipPath><clipPath id="clip38"><rect x="2960" y="3116" width="1584" height="1034"/></clipPath><clipPath id="clip39"><rect x="2960" y="3116" width="1584" height="1034"/></clipPath><clipPath id="clip40"><rect x="2960" y="3116" width="1584" height="1034"/></clipPath><clipPath id="clip41"><rect x="2960" y="3116" width="1584" height="1034"/></clipPath><clipPath id="clip42"><rect x="2960" y="3116" width="1584" height="1034"/></clipPath><clipPath id="clip43"><rect x="2960" y="3116" width="1584" height="1034"/></clipPath><clipPath id="clip44"><rect x="2960" y="3116" width="1584" height="1034"/></clipPath><clipPath id="clip45"><rect x="2960" y="3116" width="1584" height="1034"/></clipPath><clipPath id="clip46"><rect x="2960" y="3116" width="1584" height="1034"/></clipPath><clipPath id="clip47"><rect x="2960" y="3116" width="1584" height="1034"/></clipPath><clipPath id="clip48"><rect x="2960" y="3116" width="1584" height="1034"/></clipPath><clipPath id="clip49"><rect x="2960" y="3116" width="1584" height="1034"/></clipPath><clipPath id="clip50"><rect x="2960" y="3116" width="1584" height="1034"/></clipPath><clipPath id="clip51"><rect x="2960" y="3116" width="1584" height="1034"/></clipPath><clipPath id="clip52"><rect x="2960" y="3116" width="1584" height="1034"/></clipPath><clipPath id="clip53"><rect x="2960" y="3116" width="1584" height="1034"/></clipPath><clipPath id="clip54"><rect x="2960" y="3116" width="1584" height="1034"/></clipPath><clipPath id="clip55"><rect x="2960" y="3116" width="1584" height="1034"/></clipPath><clipPath id="clip56"><rect x="2960" y="3116" width="1584" height="1034"/></clipPath><clipPath id="clip57"><rect x="2960" y="3116" width="1584" height="1034"/></clipPath></defs><g clip-path="url(#clip0)" transform="translate(-2956 -3116)"><rect x="2961" y="3117" width="1584" height="1033" fill="#FFFFFF" fill-opacity="1"/><g clip-path="url(#clip1)"><path d="M3170.5 3924.63 4521.5 3924.63M3170.5 3884.63 4521.5 3884.63M3170.5 3856.63 4521.5 3856.63M3170.5 3834.63 4521.5 3834.63M3170.5 3816.63 4521.5 3816.63M3170.5 3801.62 4521.5 3801.62M3170.5 3788.62 4521.5 3788.62M3170.5 3776.62 4521.5 3776.62M3170.5 3697.62 4521.5 3697.62M3170.5 3657.62 4521.5 3657.62M3170.5 3629.62 4521.5 3629.62M3170.5 3607.62 4521.5 3607.62M3170.5 3589.62 4521.5 3589.62M3170.5 3574.62 4521.5 3574.62M3170.5 3561.62 4521.5 3561.62M3170.5 3549.62 4521.5 3549.62M3170.5 3471.61 4521.5 3471.61M3170.5 3431.61 4521.5 3431.61M3170.5 3402.61 4521.5 3402.61M3170.5 3380.61 4521.5 3380.61M3170.5 3362.61 4521.5 3362.61M3170.5 3347.61 4521.5 3347.61M3170.5 3334.61 4521.5 3334.61M3170.5 3323.61 4521.5 3323.61M3170.5 3244.61 4521.5 3244.61M3170.5 3204.61 4521.5 3204.61M3170.5 3176.6 4521.5 3176.6M3170.5 3154.5 4521.5 3154.5" stroke="#F2F2F2" stroke-width="3.4375" stroke-linecap="butt" stroke-linejoin="round" stroke-miterlimit="10" stroke-opacity="1" fill="none" fill-rule="nonzero"/></g><g clip-path="url(#clip2)"><path d="M3170.5 3766.62 4521.5 3766.62M3170.5 3539.62 4521.5 3539.62M3170.5 3312.5 4521.5 3312.5" stroke="#D9D9D9" stroke-width="3.4375" stroke-linecap="butt" stroke-linejoin="round" stroke-miterlimit="10" stroke-opacity="1" fill="none" fill-rule="nonzero"/></g><g clip-path="url(#clip3)"><path d="M3282.61 3154.5 3282.61 3992.5M3507.62 3154.5 3507.62 3992.5M3733.62 3154.5 3733.62 3992.5M3958.63 3154.5 3958.63 3992.5M4183.64 3154.5 4183.64 3992.5M4408.65 3154.5 4408.65 3992.5" stroke="#C9C9C9" stroke-width="3.4375" stroke-linecap="butt" stroke-linejoin="round" stroke-miterlimit="10" stroke-opacity="1" fill="none" fill-rule="nonzero"/></g><g clip-path="url(#clip4)"><path d="M3395.61 3154.5 3395.61 3992.5M3620.62 3154.5 3620.62 3992.5M3845.63 3154.5 3845.63 3992.5M4070.63 3154.5 4070.63 3992.5M4296.64 3154.5 4296.64 3992.5M4521.5 3154.5 4521.5 3992.5" stroke="#D9D9D9" stroke-width="3.4375" stroke-linecap="butt" stroke-linejoin="round" stroke-miterlimit="10" stroke-opacity="1" fill="none" fill-rule="nonzero"/></g><g clip-path="url(#clip5)"><rect x="3170.5" y="3154.5" width="1351" height="838" stroke="#000000" stroke-width="3.4375" stroke-linecap="butt" stroke-linejoin="round" stroke-miterlimit="10" stroke-opacity="1" fill="none"/></g><g clip-path="url(#clip6)"><path d="M0 0 0.000360892 838" stroke="#7C7C7C" stroke-width="3.4375" stroke-linecap="butt" stroke-linejoin="round" stroke-miterlimit="10" stroke-opacity="1" fill="none" fill-rule="evenodd" transform="matrix(1 0 0 -1 3170.5 3992.5)"/></g><g clip-path="url(#clip7)"><path d="M3170.5 3992.5 4521.5 3992.5" stroke="#7C7C7C" stroke-width="3.4375" stroke-linecap="butt" stroke-linejoin="round" stroke-miterlimit="10" stroke-opacity="1" fill="none" fill-rule="evenodd"/></g><g clip-path="url(#clip8)"><path d="M3282.5 3992.5 3282.5 4002.5M3507.62 3992.5 3507.62 4002.5M3733.62 3992.5 3733.62 4002.5M3958.63 3992.5 3958.63 4002.5M4183.64 3992.5 4183.64 4002.5M4408.65 3992.5 4408.65 4002.5M4521.5 3992.5 4521.5 4002.5" stroke="#7C7C7C" stroke-width="3.4375" stroke-linecap="butt" stroke-linejoin="round" stroke-miterlimit="10" stroke-opacity="1" fill="none" fill-rule="nonzero"/></g><g clip-path="url(#clip9)"><path d="M3282.5 3668.5 3507.62 3595.62 3733.62 3541.62 3958.63 3496.61 4183.64 3461.61 4408.5 3431.5" stroke="#548235" stroke-width="6.875" stroke-linecap="round" stroke-linejoin="round" stroke-miterlimit="10" stroke-opacity="1" fill="none" fill-rule="nonzero"/></g><g clip-path="url(#clip10)"><path d="M3293.33 3668.17C3293.33 3674.24 3288.41 3679.17 3282.33 3679.17 3276.26 3679.17 3271.33 3674.24 3271.33 3668.17 3271.33 3662.09 3276.26 3657.17 3282.33 3657.17 3288.41 3657.17 3293.33 3662.09 3293.33 3668.17Z" stroke="#548235" stroke-width="3.4375" stroke-linecap="butt" stroke-linejoin="round" stroke-miterlimit="10" stroke-opacity="1" fill="#548235" fill-rule="nonzero" fill-opacity="1"/><path d="M3519.33 3595.17C3519.33 3601.24 3514.41 3606.17 3508.33 3606.17 3502.26 3606.17 3497.33 3601.24 3497.33 3595.17 3497.33 3589.09 3502.26 3584.17 3508.33 3584.17 3514.41 3584.17 3519.33 3589.09 3519.33 3595.17Z" stroke="#548235" stroke-width="3.4375" stroke-linecap="butt" stroke-linejoin="round" stroke-miterlimit="10" stroke-opacity="1" fill="#548235" fill-rule="nonzero" fill-opacity="1"/><path d="M3744.33 3541.17C3744.33 3547.24 3739.41 3552.17 3733.33 3552.17 3727.26 3552.17 3722.33 3547.24 3722.33 3541.17 3722.33 3535.09 3727.26 3530.17 3733.33 3530.17 3739.41 3530.17 3744.33 3535.09 3744.33 3541.17Z" stroke="#548235" stroke-width="3.4375" stroke-linecap="butt" stroke-linejoin="round" stroke-miterlimit="10" stroke-opacity="1" fill="#548235" fill-rule="nonzero" fill-opacity="1"/><path d="M3969.33 3496.17C3969.33 3502.24 3964.41 3507.17 3958.33 3507.17 3952.26 3507.17 3947.33 3502.24 3947.33 3496.17 3947.33 3490.09 3952.26 3485.17 3958.33 3485.17 3964.41 3485.17 3969.33 3490.09 3969.33 3496.17Z" stroke="#548235" stroke-width="3.4375" stroke-linecap="butt" stroke-linejoin="round" stroke-miterlimit="10" stroke-opacity="1" fill="#548235" fill-rule="nonzero" fill-opacity="1"/><path d="M4194.33 3461.17C4194.33 3467.24 4189.41 3472.17 4183.33 3472.17 4177.26 3472.17 4172.33 3467.24 4172.33 3461.17 4172.33 3455.09 4177.26 3450.17 4183.33 3450.17 4189.41 3450.17 4194.33 3455.09 4194.33 3461.17Z" stroke="#548235" stroke-width="3.4375" stroke-linecap="butt" stroke-linejoin="round" stroke-miterlimit="10" stroke-opacity="1" fill="#548235" fill-rule="nonzero" fill-opacity="1"/><path d="M4419.33 3431.17C4419.33 3437.24 4414.41 3442.17 4408.33 3442.17 4402.26 3442.17 4397.33 3437.24 4397.33 3431.17 4397.33 3425.09 4402.26 3420.17 4408.33 3420.17 4414.41 3420.17 4419.33 3425.09 4419.33 3431.17Z" stroke="#548235" stroke-width="3.4375" stroke-linecap="butt" stroke-linejoin="round" stroke-miterlimit="10" stroke-opacity="1" fill="#548235" fill-rule="nonzero" fill-opacity="1"/></g><g clip-path="url(#clip11)"><path d="M3282.5 3734.5 3507.62 3675.62 3733.62 3633.62 3958.63 3594.62 4183.64 3561.62 4408.5 3534.5" stroke="#92D050" stroke-width="4.58333" stroke-linecap="round" stroke-linejoin="round" stroke-miterlimit="10" stroke-opacity="1" fill="none" fill-rule="nonzero"/></g><g clip-path="url(#clip12)"><path d="M3266.33 3718.17 3297.33 3718.17 3297.33 3749.17 3266.33 3749.17Z" stroke="#000000" stroke-width="3.4375" stroke-linecap="butt" stroke-linejoin="round" stroke-miterlimit="10" stroke-opacity="1" fill="#92D050" fill-rule="nonzero" fill-opacity="1"/><path d="M3492.33 3659.17 3523.33 3659.17 3523.33 3690.17 3492.33 3690.17Z" stroke="#000000" stroke-width="3.4375" stroke-linecap="butt" stroke-linejoin="round" stroke-miterlimit="10" stroke-opacity="1" fill="#92D050" fill-rule="nonzero" fill-opacity="1"/><path d="M3717.33 3617.17 3748.33 3617.17 3748.33 3648.17 3717.33 3648.17Z" stroke="#000000" stroke-width="3.4375" stroke-linecap="butt" stroke-linejoin="round" stroke-miterlimit="10" stroke-opacity="1" fill="#92D050" fill-rule="nonzero" fill-opacity="1"/><path d="M3942.33 3579.17 3973.33 3579.17 3973.33 3610.17 3942.33 3610.17Z" stroke="#000000" stroke-width="3.4375" stroke-linecap="butt" stroke-linejoin="round" stroke-miterlimit="10" stroke-opacity="1" fill="#92D050" fill-rule="nonzero" fill-opacity="1"/><path d="M4167.33 3546.17 4198.33 3546.17 4198.33 3577.17 4167.33 3577.17Z" stroke="#000000" stroke-width="3.4375" stroke-linecap="butt" stroke-linejoin="round" stroke-miterlimit="10" stroke-opacity="1" fill="#92D050" fill-rule="nonzero" fill-opacity="1"/><path d="M4392.33 3518.17 4423.33 3518.17 4423.33 3549.17 4392.33 3549.17Z" stroke="#000000" stroke-width="3.4375" stroke-linecap="butt" stroke-linejoin="round" stroke-miterlimit="10" stroke-opacity="1" fill="#92D050" fill-rule="nonzero" fill-opacity="1"/></g><g clip-path="url(#clip13)"><path d="M3282.5 3776.5 3507.62 3731.62 3733.62 3700.62 3958.63 3674.62 4183.64 3651.62 4408.5 3632.5" stroke="#548235" stroke-width="4.58333" stroke-linecap="round" stroke-linejoin="round" stroke-miterlimit="10" stroke-opacity="1" fill="none" fill-rule="nonzero"/></g><g clip-path="url(#clip14)"><path d="M3294.33 3775.17C3294.33 3782.35 3288.51 3788.17 3281.33 3788.17 3274.15 3788.17 3268.33 3782.35 3268.33 3775.17 3268.33 3767.99 3274.15 3762.17 3281.33 3762.17 3288.51 3762.17 3294.33 3767.99 3294.33 3775.17Z" stroke="#000000" stroke-width="3.4375" stroke-linecap="butt" stroke-linejoin="round" stroke-miterlimit="10" stroke-opacity="1" fill="#548235" fill-rule="nonzero" fill-opacity="1"/><path d="M3520.33 3730.17C3520.33 3737.35 3514.51 3743.17 3507.33 3743.17 3500.15 3743.17 3494.33 3737.35 3494.33 3730.17 3494.33 3722.99 3500.15 3717.17 3507.33 3717.17 3514.51 3717.17 3520.33 3722.99 3520.33 3730.17Z" stroke="#000000" stroke-width="3.4375" stroke-linecap="butt" stroke-linejoin="round" stroke-miterlimit="10" stroke-opacity="1" fill="#548235" fill-rule="nonzero" fill-opacity="1"/><path d="M3745.33 3699.17C3745.33 3706.35 3739.51 3712.17 3732.33 3712.17 3725.15 3712.17 3719.33 3706.35 3719.33 3699.17 3719.33 3691.99 3725.15 3686.17 3732.33 3686.17 3739.51 3686.17 3745.33 3691.99 3745.33 3699.17Z" stroke="#000000" stroke-width="3.4375" stroke-linecap="butt" stroke-linejoin="round" stroke-miterlimit="10" stroke-opacity="1" fill="#548235" fill-rule="nonzero" fill-opacity="1"/><path d="M3970.33 3673.17C3970.33 3680.35 3964.51 3686.17 3957.33 3686.17 3950.15 3686.17 3944.33 3680.35 3944.33 3673.17 3944.33 3665.99 3950.15 3660.17 3957.33 3660.17 3964.51 3660.17 3970.33 3665.99 3970.33 3673.17Z" stroke="#000000" stroke-width="3.4375" stroke-linecap="butt" stroke-linejoin="round" stroke-miterlimit="10" stroke-opacity="1" fill="#548235" fill-rule="nonzero" fill-opacity="1"/><path d="M4195.33 3650.17C4195.33 3657.35 4189.51 3663.17 4182.33 3663.17 4175.15 3663.17 4169.33 3657.35 4169.33 3650.17 4169.33 3642.99 4175.15 3637.17 4182.33 3637.17 4189.51 3637.17 4195.33 3642.99 4195.33 3650.17Z" stroke="#000000" stroke-width="3.4375" stroke-linecap="butt" stroke-linejoin="round" stroke-miterlimit="10" stroke-opacity="1" fill="#548235" fill-rule="nonzero" fill-opacity="1"/><path d="M4420.33 3631.17C4420.33 3638.35 4414.51 3644.17 4407.33 3644.17 4400.15 3644.17 4394.33 3638.35 4394.33 3631.17 4394.33 3623.99 4400.15 3618.17 4407.33 3618.17 4414.51 3618.17 4420.33 3623.99 4420.33 3631.17Z" stroke="#000000" stroke-width="3.4375" stroke-linecap="butt" stroke-linejoin="round" stroke-miterlimit="10" stroke-opacity="1" fill="#548235" fill-rule="nonzero" fill-opacity="1"/></g><g clip-path="url(#clip15)"><path d="M3282.5 3710.5 3507.62 3632.62 3733.62 3577.62 3958.63 3532.62 4183.64 3497.61 4408.5 3467.5" stroke="#2E75B6" stroke-width="6.875" stroke-linecap="round" stroke-linejoin="round" stroke-miterlimit="10" stroke-opacity="1" fill="none" fill-rule="nonzero"/></g><g clip-path="url(#clip16)"><path d="M3293.33 3710.17C3293.33 3716.24 3288.41 3721.17 3282.33 3721.17 3276.26 3721.17 3271.33 3716.24 3271.33 3710.17 3271.33 3704.09 3276.26 3699.17 3282.33 3699.17 3288.41 3699.17 3293.33 3704.09 3293.33 3710.17Z" stroke="#2E75B6" stroke-width="3.4375" stroke-linecap="butt" stroke-linejoin="round" stroke-miterlimit="10" stroke-opacity="1" fill="#2E75B6" fill-rule="nonzero" fill-opacity="1"/><path d="M3519.33 3632.17C3519.33 3638.24 3514.41 3643.17 3508.33 3643.17 3502.26 3643.17 3497.33 3638.24 3497.33 3632.17 3497.33 3626.09 3502.26 3621.17 3508.33 3621.17 3514.41 3621.17 3519.33 3626.09 3519.33 3632.17Z" stroke="#2E75B6" stroke-width="3.4375" stroke-linecap="butt" stroke-linejoin="round" stroke-miterlimit="10" stroke-opacity="1" fill="#2E75B6" fill-rule="nonzero" fill-opacity="1"/><path d="M3744.33 3577.17C3744.33 3583.24 3739.41 3588.17 3733.33 3588.17 3727.26 3588.17 3722.33 3583.24 3722.33 3577.17 3722.33 3571.09 3727.26 3566.17 3733.33 3566.17 3739.41 3566.17 3744.33 3571.09 3744.33 3577.17Z" stroke="#2E75B6" stroke-width="3.4375" stroke-linecap="butt" stroke-linejoin="round" stroke-miterlimit="10" stroke-opacity="1" fill="#2E75B6" fill-rule="nonzero" fill-opacity="1"/><path d="M3969.33 3532.17C3969.33 3538.24 3964.41 3543.17 3958.33 3543.17 3952.26 3543.17 3947.33 3538.24 3947.33 3532.17 3947.33 3526.09 3952.26 3521.17 3958.33 3521.17 3964.41 3521.17 3969.33 3526.09 3969.33 3532.17Z" stroke="#2E75B6" stroke-width="3.4375" stroke-linecap="butt" stroke-linejoin="round" stroke-miterlimit="10" stroke-opacity="1" fill="#2E75B6" fill-rule="nonzero" fill-opacity="1"/><path d="M4194.33 3497.17C4194.33 3503.24 4189.41 3508.17 4183.33 3508.17 4177.26 3508.17 4172.33 3503.24 4172.33 3497.17 4172.33 3491.09 4177.26 3486.17 4183.33 3486.17 4189.41 3486.17 4194.33 3491.09 4194.33 3497.17Z" stroke="#2E75B6" stroke-width="3.4375" stroke-linecap="butt" stroke-linejoin="round" stroke-miterlimit="10" stroke-opacity="1" fill="#2E75B6" fill-rule="nonzero" fill-opacity="1"/><path d="M4419.33 3467.17C4419.33 3473.24 4414.41 3478.17 4408.33 3478.17 4402.26 3478.17 4397.33 3473.24 4397.33 3467.17 4397.33 3461.09 4402.26 3456.17 4408.33 3456.17 4414.41 3456.17 4419.33 3461.09 4419.33 3467.17Z" stroke="#2E75B6" stroke-width="3.4375" stroke-linecap="butt" stroke-linejoin="round" stroke-miterlimit="10" stroke-opacity="1" fill="#2E75B6" fill-rule="nonzero" fill-opacity="1"/></g><g clip-path="url(#clip17)"><path d="M3282.5 3813.5 3507.62 3736.62 3733.62 3683.62 3958.63 3639.62 4183.64 3604.62 4408.5 3574.5" stroke="#0070C0" stroke-width="4.58333" stroke-linecap="round" stroke-linejoin="round" stroke-miterlimit="10" stroke-opacity="1" fill="none" fill-rule="nonzero"/></g><g clip-path="url(#clip18)"><path d="M3282.33 3795.17 3300.33 3831.17 3264.33 3831.17Z" stroke="#000000" stroke-width="3.4375" stroke-linecap="butt" stroke-linejoin="round" stroke-miterlimit="10" stroke-opacity="0.941176" fill="#0070C0" fill-rule="nonzero" fill-opacity="1"/><path d="M3508.33 3718.17 3526.33 3754.17 3490.33 3754.17Z" stroke="#000000" stroke-width="3.4375" stroke-linecap="butt" stroke-linejoin="round" stroke-miterlimit="10" stroke-opacity="0.941176" fill="#0070C0" fill-rule="nonzero" fill-opacity="1"/><path d="M3733.33 3665.17 3751.33 3701.17 3715.33 3701.17Z" stroke="#000000" stroke-width="3.4375" stroke-linecap="butt" stroke-linejoin="round" stroke-miterlimit="10" stroke-opacity="0.941176" fill="#0070C0" fill-rule="nonzero" fill-opacity="1"/><path d="M3958.33 3621.17 3976.33 3657.17 3940.33 3657.17Z" stroke="#000000" stroke-width="3.4375" stroke-linecap="butt" stroke-linejoin="round" stroke-miterlimit="10" stroke-opacity="0.941176" fill="#0070C0" fill-rule="nonzero" fill-opacity="1"/><path d="M4183.33 3586.17 4201.33 3622.17 4165.33 3622.17Z" stroke="#000000" stroke-width="3.4375" stroke-linecap="butt" stroke-linejoin="round" stroke-miterlimit="10" stroke-opacity="0.941176" fill="#0070C0" fill-rule="nonzero" fill-opacity="1"/><path d="M4408.33 3556.17 4426.33 3592.17 4390.33 3592.17Z" stroke="#000000" stroke-width="3.4375" stroke-linecap="butt" stroke-linejoin="round" stroke-miterlimit="10" stroke-opacity="0.941176" fill="#0070C0" fill-rule="nonzero" fill-opacity="1"/></g><g clip-path="url(#clip19)"><path d="M3282.5 3941.5 3507.62 3874.63 3733.62 3830.63 3958.63 3788.62 4183.64 3755.62 4408.5 3726.5" stroke="#0070C0" stroke-width="4.58333" stroke-linecap="round" stroke-linejoin="round" stroke-miterlimit="10" stroke-opacity="1" fill="none" fill-rule="nonzero"/></g><g clip-path="url(#clip20)"><path d="M3293.33 3941.17C3293.33 3947.24 3288.41 3952.17 3282.33 3952.17 3276.26 3952.17 3271.33 3947.24 3271.33 3941.17 3271.33 3935.09 3276.26 3930.17 3282.33 3930.17 3288.41 3930.17 3293.33 3935.09 3293.33 3941.17Z" stroke="#000000" stroke-width="3.4375" stroke-linecap="butt" stroke-linejoin="round" stroke-miterlimit="10" stroke-opacity="1" fill="#0070C0" fill-rule="nonzero" fill-opacity="1"/><path d="M3519.33 3874.17C3519.33 3880.24 3514.41 3885.17 3508.33 3885.17 3502.26 3885.17 3497.33 3880.24 3497.33 3874.17 3497.33 3868.09 3502.26 3863.17 3508.33 3863.17 3514.41 3863.17 3519.33 3868.09 3519.33 3874.17Z" stroke="#000000" stroke-width="3.4375" stroke-linecap="butt" stroke-linejoin="round" stroke-miterlimit="10" stroke-opacity="1" fill="#0070C0" fill-rule="nonzero" fill-opacity="1"/><path d="M3744.33 3830.17C3744.33 3836.24 3739.41 3841.17 3733.33 3841.17 3727.26 3841.17 3722.33 3836.24 3722.33 3830.17 3722.33 3824.09 3727.26 3819.17 3733.33 3819.17 3739.41 3819.17 3744.33 3824.09 3744.33 3830.17Z" stroke="#000000" stroke-width="3.4375" stroke-linecap="butt" stroke-linejoin="round" stroke-miterlimit="10" stroke-opacity="1" fill="#0070C0" fill-rule="nonzero" fill-opacity="1"/><path d="M3969.33 3789.17C3969.33 3795.24 3964.41 3800.17 3958.33 3800.17 3952.26 3800.17 3947.33 3795.24 3947.33 3789.17 3947.33 3783.09 3952.26 3778.17 3958.33 3778.17 3964.41 3778.17 3969.33 3783.09 3969.33 3789.17Z" stroke="#000000" stroke-width="3.4375" stroke-linecap="butt" stroke-linejoin="round" stroke-miterlimit="10" stroke-opacity="1" fill="#0070C0" fill-rule="nonzero" fill-opacity="1"/><path d="M4194.33 3755.17C4194.33 3761.24 4189.41 3766.17 4183.33 3766.17 4177.26 3766.17 4172.33 3761.24 4172.33 3755.17 4172.33 3749.09 4177.26 3744.17 4183.33 3744.17 4189.41 3744.17 4194.33 3749.09 4194.33 3755.17Z" stroke="#000000" stroke-width="3.4375" stroke-linecap="butt" stroke-linejoin="round" stroke-miterlimit="10" stroke-opacity="1" fill="#0070C0" fill-rule="nonzero" fill-opacity="1"/><path d="M4419.33 3726.17C4419.33 3732.24 4414.41 3737.17 4408.33 3737.17 4402.26 3737.17 4397.33 3732.24 4397.33 3726.17 4397.33 3720.09 4402.26 3715.17 4408.33 3715.17 4414.41 3715.17 4419.33 3720.09 4419.33 3726.17Z" stroke="#000000" stroke-width="3.4375" stroke-linecap="butt" stroke-linejoin="round" stroke-miterlimit="10" stroke-opacity="1" fill="#0070C0" fill-rule="nonzero" fill-opacity="1"/></g><g clip-path="url(#clip21)"><path d="M3281.49 3944.21 3301.22 3938.18C3303.03 3937.62 3304.95 3938.65 3305.51 3940.46 3306.07 3942.28 3305.04 3944.2 3303.23 3944.75L3283.51 3950.79C3281.69 3951.34 3279.77 3950.32 3279.21 3948.51 3278.66 3946.69 3279.68 3944.77 3281.49 3944.21ZM3327.51 3930.13 3347.24 3924.1C3349.05 3923.54 3350.97 3924.57 3351.53 3926.38 3352.08 3928.2 3351.06 3930.12 3349.25 3930.67L3329.53 3936.71C3327.71 3937.26 3325.79 3936.24 3325.23 3934.43 3324.68 3932.61 3325.7 3930.69 3327.51 3930.13ZM3373.53 3916.05 3393.26 3910.02C3395.07 3909.46 3396.99 3910.49 3397.55 3912.3 3398.1 3914.12 3397.08 3916.04 3395.27 3916.59L3375.54 3922.63C3373.73 3923.18 3371.81 3922.16 3371.25 3920.35 3370.7 3918.53 3371.72 3916.61 3373.53 3916.05ZM3419.55 3901.97 3439.28 3895.94C3441.09 3895.39 3443.01 3896.41 3443.57 3898.22 3444.12 3900.04 3443.1 3901.96 3441.29 3902.52L3421.56 3908.55C3419.75 3909.1 3417.83 3908.08 3417.27 3906.27 3416.72 3904.45 3417.74 3902.53 3419.55 3901.97ZM3465.57 3887.9 3485.29 3881.86C3487.11 3881.31 3489.03 3882.33 3489.59 3884.14 3490.14 3885.96 3489.12 3887.88 3487.31 3888.44L3467.58 3894.47C3465.77 3895.03 3463.85 3894 3463.29 3892.19 3462.74 3890.37 3463.76 3888.45 3465.57 3887.9ZM3511.94 3874.13 3532.06 3869.59C3533.91 3869.17 3535.75 3870.33 3536.17 3872.18 3536.59 3874.04 3535.43 3875.88 3533.57 3876.29L3513.45 3880.83C3511.6 3881.25 3509.76 3880.09 3509.34 3878.24 3508.93 3876.39 3510.09 3874.55 3511.94 3874.13ZM3558.89 3863.53 3579 3858.99C3580.86 3858.58 3582.7 3859.74 3583.11 3861.59 3583.53 3863.44 3582.37 3865.28 3580.52 3865.7L3560.4 3870.24C3558.55 3870.66 3556.71 3869.5 3556.29 3867.64 3555.87 3865.79 3557.03 3863.95 3558.89 3863.53ZM3605.83 3852.94 3625.95 3848.4C3627.8 3847.98 3629.64 3849.14 3630.06 3851 3630.48 3852.85 3629.31 3854.69 3627.46 3855.11L3607.34 3859.65C3605.49 3860.06 3603.65 3858.9 3603.23 3857.05 3602.82 3855.2 3603.98 3853.36 3605.83 3852.94ZM3652.77 3842.35 3672.89 3837.81C3674.75 3837.39 3676.59 3838.55 3677 3840.4 3677.42 3842.25 3676.26 3844.09 3674.41 3844.51L3654.29 3849.05C3652.44 3849.47 3650.6 3848.31 3650.18 3846.46 3649.76 3844.6 3650.92 3842.76 3652.77 3842.35ZM3699.72 3831.75 3719.84 3827.21C3721.69 3826.79 3723.53 3827.96 3723.95 3829.81 3724.37 3831.66 3723.2 3833.5 3721.35 3833.92L3701.23 3838.46C3699.38 3838.88 3697.54 3837.71 3697.12 3835.86 3696.7 3834.01 3697.87 3832.17 3699.72 3831.75ZM3746.95 3821.77 3767.25 3818.16C3769.12 3817.82 3770.91 3819.07 3771.24 3820.94 3771.57 3822.81 3770.33 3824.59 3768.46 3824.92L3748.15 3828.53C3746.28 3828.87 3744.5 3827.62 3744.16 3825.75 3743.83 3823.88 3745.08 3822.1 3746.95 3821.77ZM3794.33 3813.34 3814.64 3809.73C3816.5 3809.4 3818.29 3810.65 3818.62 3812.51 3818.95 3814.38 3817.71 3816.17 3815.84 3816.5L3795.53 3820.11C3793.66 3820.44 3791.88 3819.2 3791.55 3817.33 3791.21 3815.46 3792.46 3813.67 3794.33 3813.34ZM3841.71 3804.92 3862.02 3801.31C3863.89 3800.98 3865.67 3802.22 3866 3804.09 3866.34 3805.96 3865.09 3807.75 3863.22 3808.08L3842.91 3811.69C3841.05 3812.02 3839.26 3810.77 3838.93 3808.9 3838.6 3807.04 3839.84 3805.25 3841.71 3804.92ZM3889.09 3796.5 3909.4 3792.89C3911.27 3792.55 3913.05 3793.8 3913.39 3795.67 3913.72 3797.54 3912.47 3799.32 3910.6 3799.65L3890.3 3803.26C3888.43 3803.6 3886.64 3802.35 3886.31 3800.48 3885.98 3798.61 3887.22 3796.83 3889.09 3796.5ZM3936.48 3788.07 3956.78 3784.46C3958.65 3784.13 3960.44 3785.38 3960.77 3787.24 3961.1 3789.11 3959.85 3790.9 3957.99 3791.23L3937.68 3794.84C3935.81 3795.17 3934.02 3793.93 3933.69 3792.06 3933.36 3790.19 3934.61 3788.4 3936.48 3788.07ZM3984.06 3780.31 4004.45 3777.22C4006.33 3776.94 4008.08 3778.23 4008.36 3780.11 4008.65 3781.99 4007.35 3783.74 4005.48 3784.02L3985.08 3787.1C3983.21 3787.39 3981.45 3786.1 3981.17 3784.22 3980.89 3782.34 3982.18 3780.59 3984.06 3780.31ZM4031.64 3773.12 4052.03 3770.03C4053.91 3769.75 4055.66 3771.04 4055.95 3772.92 4056.23 3774.8 4054.94 3776.55 4053.06 3776.83L4032.67 3779.91C4030.79 3780.2 4029.04 3778.9 4028.76 3777.03 4028.47 3775.15 4029.76 3773.4 4031.64 3773.12ZM4079.23 3765.92 4099.62 3762.84C4101.5 3762.56 4103.25 3763.85 4103.53 3765.73 4103.81 3767.61 4102.52 3769.36 4100.65 3769.64L4080.25 3772.72C4078.38 3773.01 4076.62 3771.71 4076.34 3769.84 4076.06 3767.96 4077.35 3766.21 4079.23 3765.92ZM4126.81 3758.73 4147.2 3755.65C4149.08 3755.37 4150.83 3756.66 4151.12 3758.54 4151.4 3760.41 4150.11 3762.17 4148.23 3762.45L4127.84 3765.53C4125.96 3765.82 4124.21 3764.52 4123.92 3762.65 4123.64 3760.77 4124.93 3759.02 4126.81 3758.73ZM4174.4 3751.54 4183.12 3750.22 4194.92 3748.75C4196.8 3748.51 4198.52 3749.85 4198.75 3751.73 4198.99 3753.62 4197.65 3755.33 4195.77 3755.57L4184.15 3757.02 4175.42 3758.34C4173.54 3758.62 4171.79 3757.33 4171.51 3755.46 4171.23 3753.58 4172.52 3751.83 4174.4 3751.54ZM4222.2 3745.34 4242.67 3742.78C4244.55 3742.54 4246.27 3743.88 4246.51 3745.76 4246.74 3747.64 4245.41 3749.36 4243.52 3749.6L4223.06 3752.16C4221.17 3752.39 4219.46 3751.06 4219.22 3749.17 4218.98 3747.29 4220.32 3745.57 4222.2 3745.34ZM4269.96 3739.36 4290.42 3736.8C4292.31 3736.57 4294.02 3737.9 4294.26 3739.79 4294.5 3741.67 4293.16 3743.39 4291.28 3743.63L4270.81 3746.19C4268.93 3746.42 4267.21 3745.08 4266.97 3743.2 4266.74 3741.32 4268.07 3739.6 4269.96 3739.36ZM4317.71 3733.39 4338.18 3730.83C4340.06 3730.6 4341.78 3731.93 4342.01 3733.82 4342.25 3735.7 4340.91 3737.42 4339.03 3737.65L4318.56 3740.21C4316.68 3740.45 4314.96 3739.11 4314.73 3737.23 4314.49 3735.34 4315.83 3733.63 4317.71 3733.39ZM4365.46 3727.42 4385.93 3724.86C4387.81 3724.62 4389.53 3725.96 4389.77 3727.84 4390 3729.73 4388.67 3731.45 4386.78 3731.68L4366.32 3734.24C4364.43 3734.48 4362.71 3733.14 4362.48 3731.26 4362.24 3729.37 4363.58 3727.65 4365.46 3727.42Z" fill="#000000" fill-rule="nonzero" fill-opacity="1"/></g><g clip-path="url(#clip22)"><path d="M3281.38 3814.25 3300.87 3807.51C3302.66 3806.89 3304.62 3807.84 3305.24 3809.63 3305.86 3811.43 3304.91 3813.38 3303.12 3814.01L3283.62 3820.75C3281.83 3821.37 3279.87 3820.42 3279.25 3818.62 3278.63 3816.83 3279.58 3814.87 3281.38 3814.25ZM3326.86 3798.52 3346.35 3791.77C3348.14 3791.15 3350.1 3792.11 3350.72 3793.9 3351.34 3795.69 3350.39 3797.65 3348.6 3798.27L3329.1 3805.01C3327.31 3805.64 3325.35 3804.68 3324.73 3802.89 3324.11 3801.1 3325.06 3799.14 3326.86 3798.52ZM3372.34 3782.78 3391.83 3776.04C3393.62 3775.42 3395.58 3776.37 3396.2 3778.17 3396.82 3779.96 3395.87 3781.92 3394.08 3782.54L3374.58 3789.28C3372.79 3789.9 3370.83 3788.95 3370.21 3787.16 3369.59 3785.36 3370.54 3783.4 3372.34 3782.78ZM3417.82 3767.05 3437.31 3760.31C3439.1 3759.69 3441.06 3760.64 3441.68 3762.43 3442.3 3764.23 3441.35 3766.18 3439.56 3766.8L3420.07 3773.55C3418.27 3774.17 3416.31 3773.22 3415.69 3771.42 3415.07 3769.63 3416.02 3767.67 3417.82 3767.05ZM3463.3 3751.32 3482.79 3744.57C3484.58 3743.95 3486.54 3744.9 3487.16 3746.7 3487.78 3748.49 3486.83 3750.45 3485.04 3751.07L3465.55 3757.81C3463.75 3758.43 3461.79 3757.48 3461.17 3755.69 3460.55 3753.9 3461.5 3751.94 3463.3 3751.32ZM3509.15 3735.71 3529.19 3730.83C3531.04 3730.38 3532.9 3731.52 3533.35 3733.36 3533.8 3735.21 3532.66 3737.06 3530.82 3737.51L3510.78 3742.39C3508.93 3742.84 3507.08 3741.71 3506.63 3739.86 3506.18 3738.02 3507.31 3736.16 3509.15 3735.71ZM3555.91 3724.33 3575.95 3719.45C3577.8 3719 3579.66 3720.14 3580.11 3721.98 3580.56 3723.83 3579.42 3725.69 3577.58 3726.13L3557.54 3731.01C3555.69 3731.46 3553.84 3730.33 3553.39 3728.48 3552.94 3726.64 3554.07 3724.78 3555.91 3724.33ZM3602.67 3712.95 3622.71 3708.07C3624.56 3707.63 3626.42 3708.76 3626.87 3710.6 3627.32 3712.45 3626.18 3714.31 3624.34 3714.75L3604.3 3719.63C3602.46 3720.08 3600.6 3718.95 3600.15 3717.1 3599.7 3715.26 3600.83 3713.4 3602.67 3712.95ZM3649.43 3701.57 3669.47 3696.69C3671.32 3696.25 3673.18 3697.38 3673.63 3699.22 3674.08 3701.07 3672.94 3702.93 3671.1 3703.37L3651.06 3708.25C3649.22 3708.7 3647.36 3707.57 3646.91 3705.72 3646.46 3703.88 3647.59 3702.02 3649.43 3701.57ZM3696.19 3690.19 3716.23 3685.31C3718.08 3684.87 3719.94 3686 3720.39 3687.84 3720.84 3689.69 3719.7 3691.55 3717.86 3691.99L3697.82 3696.87C3695.98 3697.32 3694.12 3696.19 3693.67 3694.34 3693.22 3692.5 3694.35 3690.64 3696.19 3690.19ZM3743.23 3679.28 3763.49 3675.41C3765.36 3675.06 3767.16 3676.28 3767.51 3678.14 3767.87 3680.01 3766.65 3681.81 3764.78 3682.17L3744.52 3686.04C3742.66 3686.39 3740.86 3685.17 3740.5 3683.31 3740.15 3681.44 3741.37 3679.64 3743.23 3679.28ZM3790.5 3670.25 3810.76 3666.38C3812.63 3666.02 3814.43 3667.25 3814.78 3669.11 3815.14 3670.98 3813.92 3672.78 3812.05 3673.13L3791.79 3677C3789.93 3677.36 3788.13 3676.14 3787.77 3674.27 3787.41 3672.41 3788.64 3670.61 3790.5 3670.25ZM3837.77 3661.22 3858.03 3657.35C3859.9 3656.99 3861.7 3658.21 3862.05 3660.08 3862.41 3661.94 3861.19 3663.74 3859.32 3664.1L3839.06 3667.97C3837.2 3668.33 3835.4 3667.1 3835.04 3665.24 3834.68 3663.37 3835.91 3661.57 3837.77 3661.22ZM3885.04 3652.18 3905.3 3648.31C3907.16 3647.96 3908.97 3649.18 3909.32 3651.04 3909.68 3652.91 3908.46 3654.71 3906.59 3655.06L3886.33 3658.94C3884.47 3659.29 3882.67 3658.07 3882.31 3656.21 3881.95 3654.34 3883.18 3652.54 3885.04 3652.18ZM3932.31 3643.15 3952.57 3639.28C3954.43 3638.92 3956.23 3640.14 3956.59 3642.01 3956.95 3643.87 3955.72 3645.67 3953.86 3646.03L3933.6 3649.9C3931.74 3650.26 3929.94 3649.04 3929.58 3647.17 3929.22 3645.31 3930.45 3643.51 3932.31 3643.15ZM3979.83 3634.84 4000.21 3631.67C4002.08 3631.38 4003.84 3632.67 4004.13 3634.54 4004.42 3636.42 4003.14 3638.17 4001.26 3638.47L3980.88 3641.64C3979.01 3641.93 3977.25 3640.64 3976.96 3638.77 3976.67 3636.89 3977.95 3635.14 3979.83 3634.84ZM4027.38 3627.45 4047.76 3624.28C4049.64 3623.98 4051.39 3625.27 4051.68 3627.14 4051.98 3629.02 4050.69 3630.78 4048.82 3631.07L4028.44 3634.24C4026.56 3634.53 4024.8 3633.25 4024.51 3631.37 4024.22 3629.5 4025.5 3627.74 4027.38 3627.45ZM4074.93 3620.05 4095.31 3616.88C4097.19 3616.59 4098.95 3617.87 4099.24 3619.75 4099.53 3621.62 4098.25 3623.38 4096.37 3623.67L4075.99 3626.84C4074.11 3627.13 4072.36 3625.85 4072.06 3623.97 4071.77 3622.1 4073.06 3620.34 4074.93 3620.05ZM4122.49 3612.65 4142.87 3609.48C4144.74 3609.19 4146.5 3610.47 4146.79 3612.35 4147.08 3614.23 4145.8 3615.98 4143.92 3616.28L4123.54 3619.45C4121.67 3619.74 4119.91 3618.45 4119.62 3616.58 4119.33 3614.7 4120.61 3612.94 4122.49 3612.65ZM4170.04 3605.25 4183.11 3603.22 4190.51 3602.23C4192.4 3601.98 4194.12 3603.3 4194.38 3605.18 4194.63 3607.06 4193.31 3608.79 4191.43 3609.04L4184.17 3610.02 4171.1 3612.05C4169.22 3612.34 4167.46 3611.06 4167.17 3609.18 4166.88 3607.3 4168.16 3605.55 4170.04 3605.25ZM4217.77 3598.58 4238.21 3595.84C4240.09 3595.59 4241.82 3596.91 4242.08 3598.79 4242.33 3600.67 4241.01 3602.4 4239.13 3602.65L4218.68 3605.39C4216.8 3605.64 4215.07 3604.32 4214.82 3602.44 4214.57 3600.56 4215.89 3598.83 4217.77 3598.58ZM4265.47 3592.19 4285.91 3589.45C4287.79 3589.2 4289.52 3590.52 4289.78 3592.4 4290.03 3594.28 4288.71 3596.01 4286.82 3596.27L4266.38 3599C4264.5 3599.26 4262.77 3597.93 4262.52 3596.05 4262.27 3594.17 4263.59 3592.44 4265.47 3592.19ZM4313.17 3585.8 4333.61 3583.06C4335.49 3582.81 4337.22 3584.13 4337.47 3586.01 4337.73 3587.89 4336.41 3589.62 4334.52 3589.88L4314.08 3592.61C4312.2 3592.87 4310.47 3591.55 4310.22 3589.66 4309.97 3587.78 4311.29 3586.05 4313.17 3585.8ZM4360.87 3579.41 4381.31 3576.67C4383.19 3576.42 4384.92 3577.74 4385.17 3579.62 4385.43 3581.51 4384.1 3583.24 4382.22 3583.49L4361.78 3586.23C4359.9 3586.48 4358.17 3585.16 4357.92 3583.28 4357.66 3581.39 4358.99 3579.66 4360.87 3579.41Z" fill="#000000" fill-rule="nonzero" fill-opacity="1"/></g><g clip-path="url(#clip23)"><path d="M3281.36 3711.26 3300.83 3704.44C3302.62 3703.81 3304.58 3704.75 3305.21 3706.54 3305.84 3708.33 3304.89 3710.3 3303.1 3710.92L3283.64 3717.74C3281.84 3718.37 3279.88 3717.43 3279.26 3715.64 3278.63 3713.85 3279.57 3711.88 3281.36 3711.26ZM3326.78 3695.34 3346.25 3688.52C3348.04 3687.89 3350 3688.84 3350.63 3690.63 3351.25 3692.42 3350.31 3694.38 3348.52 3695.01L3329.05 3701.83C3327.26 3702.46 3325.3 3701.51 3324.67 3699.72 3324.05 3697.93 3324.99 3695.97 3326.78 3695.34ZM3372.2 3679.43 3391.66 3672.61C3393.45 3671.98 3395.42 3672.92 3396.04 3674.71 3396.67 3676.51 3395.73 3678.47 3393.94 3679.09L3374.47 3685.92C3372.68 3686.54 3370.72 3685.6 3370.09 3683.81 3369.46 3682.02 3370.41 3680.06 3372.2 3679.43ZM3417.62 3663.51 3437.08 3656.69C3438.87 3656.06 3440.83 3657.01 3441.46 3658.8 3442.09 3660.59 3441.15 3662.55 3439.35 3663.18L3419.89 3670C3418.1 3670.63 3416.14 3669.69 3415.51 3667.89 3414.88 3666.1 3415.82 3664.14 3417.62 3663.51ZM3463.03 3647.6 3482.5 3640.78C3484.29 3640.15 3486.25 3641.09 3486.88 3642.89 3487.51 3644.68 3486.56 3646.64 3484.77 3647.27L3465.31 3654.09C3463.52 3654.71 3461.55 3653.77 3460.93 3651.98 3460.3 3650.19 3461.24 3648.23 3463.03 3647.6ZM3508.82 3631.78 3528.84 3626.82C3530.68 3626.36 3532.54 3627.49 3533 3629.33 3533.46 3631.17 3532.33 3633.04 3530.49 3633.49L3510.47 3638.45C3508.63 3638.91 3506.76 3637.79 3506.31 3635.94 3505.85 3634.1 3506.97 3632.24 3508.82 3631.78ZM3555.53 3620.21 3575.55 3615.24C3577.39 3614.79 3579.26 3615.91 3579.71 3617.75 3580.17 3619.6 3579.05 3621.46 3577.2 3621.92L3557.18 3626.88C3555.34 3627.34 3553.48 3626.21 3553.02 3624.37 3552.56 3622.53 3553.69 3620.66 3555.53 3620.21ZM3602.24 3608.63 3622.26 3603.67C3624.1 3603.21 3625.97 3604.34 3626.42 3606.18 3626.88 3608.02 3625.76 3609.89 3623.91 3610.34L3603.9 3615.3C3602.05 3615.76 3600.19 3614.64 3599.73 3612.79 3599.28 3610.95 3600.4 3609.09 3602.24 3608.63ZM3648.95 3597.06 3668.97 3592.1C3670.82 3591.64 3672.68 3592.76 3673.14 3594.61 3673.59 3596.45 3672.47 3598.31 3670.63 3598.77L3650.61 3603.73C3648.76 3604.19 3646.9 3603.06 3646.44 3601.22 3645.99 3599.38 3647.11 3597.51 3648.95 3597.06ZM3695.67 3585.48 3715.69 3580.52C3717.53 3580.06 3719.39 3581.19 3719.85 3583.03 3720.31 3584.87 3719.18 3586.74 3717.34 3587.19L3697.32 3592.15C3695.48 3592.61 3693.61 3591.49 3693.16 3589.64 3692.7 3587.8 3693.82 3585.94 3695.67 3585.48ZM3742.65 3574.35 3762.89 3570.39C3764.76 3570.03 3766.56 3571.24 3766.93 3573.1 3767.29 3574.97 3766.08 3576.77 3764.21 3577.14L3743.97 3581.1C3742.11 3581.46 3740.3 3580.25 3739.94 3578.38 3739.57 3576.52 3740.79 3574.71 3742.65 3574.35ZM3789.88 3565.11 3810.12 3561.15C3811.99 3560.79 3813.79 3562.01 3814.16 3563.87 3814.52 3565.73 3813.31 3567.54 3811.44 3567.9L3791.2 3571.86C3789.34 3572.22 3787.53 3571.01 3787.17 3569.15 3786.8 3567.28 3788.02 3565.48 3789.88 3565.11ZM3837.11 3555.88 3857.35 3551.92C3859.22 3551.55 3861.02 3552.77 3861.39 3554.63 3861.75 3556.5 3860.54 3558.3 3858.67 3558.67L3838.43 3562.62C3836.57 3562.99 3834.76 3561.77 3834.4 3559.91 3834.03 3558.05 3835.25 3556.24 3837.11 3555.88ZM3884.34 3546.64 3904.58 3542.68C3906.45 3542.32 3908.25 3543.53 3908.62 3545.4 3908.98 3547.26 3907.77 3549.07 3905.9 3549.43L3885.66 3553.39C3883.8 3553.75 3881.99 3552.54 3881.63 3550.67 3881.26 3548.81 3882.48 3547.01 3884.34 3546.64ZM3931.57 3537.4 3951.81 3533.45C3953.68 3533.08 3955.48 3534.3 3955.85 3536.16 3956.21 3538.02 3955 3539.83 3953.13 3540.19L3932.89 3544.15C3931.03 3544.52 3929.22 3543.3 3928.86 3541.44 3928.5 3539.57 3929.71 3537.77 3931.57 3537.4ZM3979.08 3528.96 3999.46 3525.79C4001.33 3525.49 4003.09 3526.78 4003.38 3528.65 4003.67 3530.53 4002.39 3532.29 4000.51 3532.58L3980.13 3535.75C3978.26 3536.04 3976.5 3534.76 3976.21 3532.88 3975.92 3531.01 3977.2 3529.25 3979.08 3528.96ZM4026.63 3521.56 4047.01 3518.39C4048.89 3518.1 4050.64 3519.38 4050.94 3521.26 4051.23 3523.13 4049.94 3524.89 4048.07 3525.18L4027.69 3528.35C4025.81 3528.64 4024.05 3527.36 4023.76 3525.48 4023.47 3523.61 4024.75 3521.85 4026.63 3521.56ZM4074.18 3514.16 4094.56 3510.99C4096.44 3510.7 4098.2 3511.98 4098.49 3513.86 4098.78 3515.74 4097.5 3517.49 4095.62 3517.79L4075.24 3520.96C4073.36 3521.25 4071.61 3519.96 4071.32 3518.09 4071.02 3516.21 4072.31 3514.45 4074.18 3514.16ZM4121.74 3506.77 4142.12 3503.59C4143.99 3503.3 4145.75 3504.59 4146.04 3506.46 4146.33 3508.34 4145.05 3510.1 4143.17 3510.39L4122.79 3513.56C4120.92 3513.85 4119.16 3512.57 4118.87 3510.69 4118.58 3508.81 4119.86 3507.06 4121.74 3506.77ZM4169.29 3499.37 4183.11 3497.22 4189.76 3496.33C4191.64 3496.07 4193.37 3497.4 4193.63 3499.28 4193.88 3501.16 4192.56 3502.89 4190.67 3503.14L4184.17 3504.01 4170.35 3506.16C4168.47 3506.45 4166.71 3505.17 4166.42 3503.29 4166.13 3501.42 4167.41 3499.66 4169.29 3499.37ZM4217.02 3492.68 4237.46 3489.94C4239.34 3489.69 4241.07 3491.01 4241.32 3492.89 4241.58 3494.77 4240.26 3496.5 4238.37 3496.75L4217.93 3499.49C4216.05 3499.74 4214.32 3498.42 4214.07 3496.54 4213.82 3494.66 4215.14 3492.93 4217.02 3492.68ZM4264.72 3486.29 4285.16 3483.55C4287.04 3483.3 4288.77 3484.62 4289.02 3486.5 4289.28 3488.38 4287.95 3490.11 4286.07 3490.36L4265.63 3493.1C4263.75 3493.35 4262.02 3492.03 4261.77 3490.15 4261.52 3488.27 4262.84 3486.54 4264.72 3486.29ZM4312.42 3479.9 4332.86 3477.16C4334.74 3476.91 4336.47 3478.23 4336.72 3480.11 4336.98 3481.99 4335.65 3483.72 4333.77 3483.98L4313.33 3486.71C4311.45 3486.97 4309.72 3485.65 4309.47 3483.76 4309.21 3481.88 4310.54 3480.15 4312.42 3479.9ZM4360.12 3473.51 4380.56 3470.77C4382.44 3470.52 4384.17 3471.84 4384.42 3473.72 4384.67 3475.61 4383.35 3477.34 4381.47 3477.59L4361.03 3480.33C4359.15 3480.58 4357.42 3479.26 4357.17 3477.38 4356.91 3475.49 4358.23 3473.76 4360.12 3473.51ZM4407.82 3467.12 4408.04 3467.09C4409.93 3466.84 4411.66 3468.16 4411.91 3470.04 4412.16 3471.93 4410.84 3473.66 4408.96 3473.91L4408.73 3473.94C4406.85 3474.19 4405.12 3472.87 4404.86 3470.99 4404.61 3469.11 4405.93 3467.38 4407.82 3467.12Z" fill="#000000" fill-rule="nonzero" fill-opacity="1"/></g><g clip-path="url(#clip24)"><path d="M3293.33 3714.17C3293.33 3720.24 3288.41 3725.17 3282.33 3725.17 3276.26 3725.17 3271.33 3720.24 3271.33 3714.17 3271.33 3708.09 3276.26 3703.17 3282.33 3703.17 3288.41 3703.17 3293.33 3708.09 3293.33 3714.17Z" stroke="#2F5597" stroke-width="3.4375" stroke-linecap="butt" stroke-linejoin="round" stroke-miterlimit="10" stroke-opacity="1" fill="#2F5597" fill-rule="nonzero" fill-opacity="1"/><path d="M3519.33 3635.17C3519.33 3641.24 3514.41 3646.17 3508.33 3646.17 3502.26 3646.17 3497.33 3641.24 3497.33 3635.17 3497.33 3629.09 3502.26 3624.17 3508.33 3624.17 3514.41 3624.17 3519.33 3629.09 3519.33 3635.17Z" stroke="#2F5597" stroke-width="3.4375" stroke-linecap="butt" stroke-linejoin="round" stroke-miterlimit="10" stroke-opacity="1" fill="#2F5597" fill-rule="nonzero" fill-opacity="1"/><path d="M3744.33 3579.17C3744.33 3585.24 3739.41 3590.17 3733.33 3590.17 3727.26 3590.17 3722.33 3585.24 3722.33 3579.17 3722.33 3573.09 3727.26 3568.17 3733.33 3568.17 3739.41 3568.17 3744.33 3573.09 3744.33 3579.17Z" stroke="#2F5597" stroke-width="3.4375" stroke-linecap="butt" stroke-linejoin="round" stroke-miterlimit="10" stroke-opacity="1" fill="#2F5597" fill-rule="nonzero" fill-opacity="1"/><path d="M3969.33 3535.17C3969.33 3541.24 3964.41 3546.17 3958.33 3546.17 3952.26 3546.17 3947.33 3541.24 3947.33 3535.17 3947.33 3529.09 3952.26 3524.17 3958.33 3524.17 3964.41 3524.17 3969.33 3529.09 3969.33 3535.17Z" stroke="#2F5597" stroke-width="3.4375" stroke-linecap="butt" stroke-linejoin="round" stroke-miterlimit="10" stroke-opacity="1" fill="#2F5597" fill-rule="nonzero" fill-opacity="1"/><path d="M4194.33 3500.17C4194.33 3506.24 4189.41 3511.17 4183.33 3511.17 4177.26 3511.17 4172.33 3506.24 4172.33 3500.17 4172.33 3494.09 4177.26 3489.17 4183.33 3489.17 4189.41 3489.17 4194.33 3494.09 4194.33 3500.17Z" stroke="#2F5597" stroke-width="3.4375" stroke-linecap="butt" stroke-linejoin="round" stroke-miterlimit="10" stroke-opacity="1" fill="#2F5597" fill-rule="nonzero" fill-opacity="1"/><path d="M4419.33 3470.17C4419.33 3476.24 4414.41 3481.17 4408.33 3481.17 4402.26 3481.17 4397.33 3476.24 4397.33 3470.17 4397.33 3464.09 4402.26 3459.17 4408.33 3459.17 4414.41 3459.17 4419.33 3464.09 4419.33 3470.17Z" stroke="#2F5597" stroke-width="3.4375" stroke-linecap="butt" stroke-linejoin="round" stroke-miterlimit="10" stroke-opacity="1" fill="#2F5597" fill-rule="nonzero" fill-opacity="1"/></g><g clip-path="url(#clip25)"><text fill="#595959" fill-opacity="1" font-family="Calibri,Calibri_MSFontService,sans-serif" font-style="normal" font-variant="normal" font-weight="400" font-stretch="normal" font-size="41" text-anchor="start" direction="ltr" writing-mode="lr-tb" unicode-bidi="normal" text-decoration="none" transform="matrix(1 0 0 1 3058.89 4003)">0.01</text></g><g clip-path="url(#clip26)"><text fill="#595959" fill-opacity="1" font-family="Calibri,Calibri_MSFontService,sans-serif" font-style="normal" font-variant="normal" font-weight="400" font-stretch="normal" font-size="41" text-anchor="start" direction="ltr" writing-mode="lr-tb" unicode-bidi="normal" text-decoration="none" transform="matrix(1 0 0 1 3058.89 3776)">0.10</text></g><g clip-path="url(#clip27)"><text fill="#595959" fill-opacity="1" font-family="Calibri,Calibri_MSFontService,sans-serif" font-style="normal" font-variant="normal" font-weight="400" font-stretch="normal" font-size="41" text-anchor="start" direction="ltr" writing-mode="lr-tb" unicode-bidi="normal" text-decoration="none" transform="matrix(1 0 0 1 3058.89 3550)">1.00</text></g><g clip-path="url(#clip28)"><text fill="#595959" fill-opacity="1" font-family="Calibri,Calibri_MSFontService,sans-serif" font-style="normal" font-variant="normal" font-weight="400" font-stretch="normal" font-size="41" text-anchor="start" direction="ltr" writing-mode="lr-tb" unicode-bidi="normal" text-decoration="none" transform="matrix(1 0 0 1 3037.99 3323)">10.00</text></g><g clip-path="url(#clip29)"><text fill="#595959" fill-opacity="1" font-family="Calibri,Calibri_MSFontService,sans-serif" font-style="normal" font-variant="normal" font-weight="400" font-stretch="normal" font-size="41" text-anchor="start" direction="ltr" writing-mode="lr-tb" unicode-bidi="normal" text-decoration="none" transform="matrix(1 0 0 1 3230.79 4058)">256^2</text></g><g clip-path="url(#clip30)"><text fill="#595959" fill-opacity="1" font-family="Calibri,Calibri_MSFontService,sans-serif" font-style="normal" font-variant="normal" font-weight="400" font-stretch="normal" font-size="41" text-anchor="start" direction="ltr" writing-mode="lr-tb" unicode-bidi="normal" text-decoration="none" transform="matrix(1 0 0 1 3455.98 4058)">384^2</text></g><g clip-path="url(#clip31)"><text fill="#595959" fill-opacity="1" font-family="Calibri,Calibri_MSFontService,sans-serif" font-style="normal" font-variant="normal" font-weight="400" font-stretch="normal" font-size="41" text-anchor="start" direction="ltr" writing-mode="lr-tb" unicode-bidi="normal" text-decoration="none" transform="matrix(1 0 0 1 3681.17 4058)">512^2</text></g><g clip-path="url(#clip32)"><text fill="#595959" fill-opacity="1" font-family="Calibri,Calibri_MSFontService,sans-serif" font-style="normal" font-variant="normal" font-weight="400" font-stretch="normal" font-size="41" text-anchor="start" direction="ltr" writing-mode="lr-tb" unicode-bidi="normal" text-decoration="none" transform="matrix(1 0 0 1 3906.35 4058)">640^2</text></g><g clip-path="url(#clip33)"><text fill="#595959" fill-opacity="1" font-family="Calibri,Calibri_MSFontService,sans-serif" font-style="normal" font-variant="normal" font-weight="400" font-stretch="normal" font-size="41" text-anchor="start" direction="ltr" writing-mode="lr-tb" unicode-bidi="normal" text-decoration="none" transform="matrix(1 0 0 1 4131.54 4058)">768^2</text></g><g clip-path="url(#clip34)"><text fill="#595959" fill-opacity="1" font-family="Calibri,Calibri_MSFontService,sans-serif" font-style="normal" font-variant="normal" font-weight="400" font-stretch="normal" font-size="41" text-anchor="start" direction="ltr" writing-mode="lr-tb" unicode-bidi="normal" text-decoration="none" transform="matrix(1 0 0 1 4356.73 4058)">896^2</text></g><g clip-path="url(#clip35)"><text fill="#595959" fill-opacity="1" font-family="Arial,Arial_MSFontService,sans-serif" font-style="normal" font-variant="normal" font-weight="400" font-stretch="normal" font-size="55" text-anchor="start" direction="ltr" writing-mode="lr-tb" unicode-bidi="normal" text-decoration="none" transform="matrix(6.12323e-17 -1 1 6.12323e-17 3019.71 3804)">Runtime (seconds)</text></g><g clip-path="url(#clip36)"><text fill="#595959" fill-opacity="1" font-family="Arial,Arial_MSFontService,sans-serif" font-style="normal" font-variant="normal" font-weight="400" font-stretch="normal" font-size="55" text-anchor="start" direction="ltr" writing-mode="lr-tb" unicode-bidi="normal" text-decoration="none" transform="matrix(1 0 0 1 3703.98 4120)">Mesh size </text></g><g clip-path="url(#clip37)"><rect x="3203.5" y="3174.5" width="1277" height="186" stroke="#7C7C7C" stroke-width="3.4375" stroke-linecap="butt" stroke-linejoin="round" stroke-miterlimit="10" stroke-opacity="1" fill="#FFFFFF" fill-opacity="1"/></g><g clip-path="url(#clip38)"><path d="M3245.5 3205.5 3361.5 3205.5" stroke="#548235" stroke-width="6.875" stroke-linecap="round" stroke-linejoin="round" stroke-miterlimit="10" stroke-opacity="1" fill="none" fill-rule="evenodd"/></g><g clip-path="url(#clip39)"><path d="M3311 3204.5C3311 3209.19 3307.19 3213 3302.5 3213 3297.81 3213 3294 3209.19 3294 3204.5 3294 3199.81 3297.81 3196 3302.5 3196 3307.19 3196 3311 3199.81 3311 3204.5Z" stroke="#548235" stroke-width="3.4375" stroke-linecap="butt" stroke-linejoin="round" stroke-miterlimit="10" stroke-opacity="1" fill="#548235" fill-rule="nonzero" fill-opacity="1"/></g><g clip-path="url(#clip40)"><text fill="#595959" fill-opacity="1" font-family="Arial,Arial_MSFontService,sans-serif" font-style="normal" font-variant="normal" font-weight="400" font-stretch="normal" font-size="37" text-anchor="start" direction="ltr" writing-mode="lr-tb" unicode-bidi="normal" text-decoration="none" transform="matrix(1 0 0 1 3374.01 3216)">GPU - 180B</text></g><g clip-path="url(#clip41)"><path d="M3671.5 3205.5 3787.5 3205.5" stroke="#92D050" stroke-width="4.58333" stroke-linecap="round" stroke-linejoin="round" stroke-miterlimit="10" stroke-opacity="1" fill="none" fill-rule="evenodd"/></g><g clip-path="url(#clip42)"><path d="M3720.62 3196.6 3737.62 3196.6 3737.62 3213.61 3720.62 3213.61Z" stroke="#000000" stroke-width="3.4375" stroke-linecap="butt" stroke-linejoin="round" stroke-miterlimit="10" stroke-opacity="1" fill="#92D050" fill-rule="nonzero" fill-opacity="1"/></g><g clip-path="url(#clip43)"><text fill="#595959" fill-opacity="1" font-family="Arial,Arial_MSFontService,sans-serif" font-style="normal" font-variant="normal" font-weight="400" font-stretch="normal" font-size="37" text-anchor="start" direction="ltr" writing-mode="lr-tb" unicode-bidi="normal" text-decoration="none" transform="matrix(1 0 0 1 3799.72 3216)">GPU - 60B</text></g><g clip-path="url(#clip44)"><path d="M4097.5 3205.5 4212.5 3205.5" stroke="#548235" stroke-width="4.58333" stroke-linecap="round" stroke-linejoin="round" stroke-miterlimit="10" stroke-opacity="1" fill="none" fill-rule="evenodd"/></g><g clip-path="url(#clip45)"><path d="M4162 3204.5C4162 3209.19 4158.19 3213 4153.5 3213 4148.81 3213 4145 3209.19 4145 3204.5 4145 3199.81 4148.81 3196 4153.5 3196 4158.19 3196 4162 3199.81 4162 3204.5Z" stroke="#000000" stroke-width="3.4375" stroke-linecap="butt" stroke-linejoin="round" stroke-miterlimit="10" stroke-opacity="1" fill="#548235" fill-rule="nonzero" fill-opacity="1"/></g><g clip-path="url(#clip46)"><text fill="#595959" fill-opacity="1" font-family="Arial,Arial_MSFontService,sans-serif" font-style="normal" font-variant="normal" font-weight="400" font-stretch="normal" font-size="37" text-anchor="start" direction="ltr" writing-mode="lr-tb" unicode-bidi="normal" text-decoration="none" transform="matrix(1 0 0 1 4225.43 3216)">GPU - 12B</text></g><g clip-path="url(#clip47)"><path d="M3245.5 3267.5 3361.5 3267.5" stroke="#2E75B6" stroke-width="6.875" stroke-linecap="round" stroke-linejoin="round" stroke-miterlimit="10" stroke-opacity="1" fill="none" fill-rule="evenodd"/></g><g clip-path="url(#clip48)"><path d="M3311 3267C3311 3271.43 3307.19 3275.03 3302.5 3275.03 3297.81 3275.03 3294 3271.43 3294 3267 3294 3262.57 3297.81 3258.97 3302.5 3258.97 3307.19 3258.97 3311 3262.57 3311 3267Z" stroke="#2E75B6" stroke-width="3.4375" stroke-linecap="butt" stroke-linejoin="round" stroke-miterlimit="10" stroke-opacity="1" fill="#2E75B6" fill-rule="nonzero" fill-opacity="1"/></g><g clip-path="url(#clip49)"><text fill="#595959" fill-opacity="1" font-family="Arial,Arial_MSFontService,sans-serif" font-style="normal" font-variant="normal" font-weight="400" font-stretch="normal" font-size="37" text-anchor="start" direction="ltr" writing-mode="lr-tb" unicode-bidi="normal" text-decoration="none" transform="matrix(1 0 0 1 3374.01 3278)">FPGA - 180B</text></g><g clip-path="url(#clip50)"><path d="M3671.5 3267.5 3787.5 3267.5" stroke="#0070C0" stroke-width="4.58333" stroke-linecap="round" stroke-linejoin="round" stroke-miterlimit="10" stroke-opacity="1" fill="none" fill-rule="evenodd"/></g><g clip-path="url(#clip51)"><path d="M3729.5 3258.5 3738.5 3276.5 3720.5 3276.5Z" stroke="#000000" stroke-width="3.4375" stroke-linecap="butt" stroke-linejoin="round" stroke-miterlimit="10" stroke-opacity="0.941176" fill="#0070C0" fill-rule="nonzero" fill-opacity="1"/></g><g clip-path="url(#clip52)"><text fill="#595959" fill-opacity="1" font-family="Arial,Arial_MSFontService,sans-serif" font-style="normal" font-variant="normal" font-weight="400" font-stretch="normal" font-size="37" text-anchor="start" direction="ltr" writing-mode="lr-tb" unicode-bidi="normal" text-decoration="none" transform="matrix(1 0 0 1 3799.72 3278)">FPGA - 60B</text></g><g clip-path="url(#clip53)"><path d="M4097.5 3267.5 4212.5 3267.5" stroke="#0070C0" stroke-width="4.58333" stroke-linecap="round" stroke-linejoin="round" stroke-miterlimit="10" stroke-opacity="1" fill="none" fill-rule="evenodd"/></g><g clip-path="url(#clip54)"><path d="M4162 3267C4162 3271.43 4158.19 3275.03 4153.5 3275.03 4148.81 3275.03 4145 3271.43 4145 3267 4145 3262.57 4148.81 3258.97 4153.5 3258.97 4158.19 3258.97 4162 3262.57 4162 3267Z" stroke="#000000" stroke-width="3.4375" stroke-linecap="butt" stroke-linejoin="round" stroke-miterlimit="10" stroke-opacity="1" fill="#0070C0" fill-rule="nonzero" fill-opacity="1"/></g><g clip-path="url(#clip55)"><text fill="#595959" fill-opacity="1" font-family="Arial,Arial_MSFontService,sans-serif" font-style="normal" font-variant="normal" font-weight="400" font-stretch="normal" font-size="37" text-anchor="start" direction="ltr" writing-mode="lr-tb" unicode-bidi="normal" text-decoration="none" transform="matrix(1 0 0 1 4225.43 3278)">FPGA - 12B</text></g><g clip-path="url(#clip56)"><path d="M3245.5 3326.06 3266.12 3326.06C3268.02 3326.06 3269.56 3327.6 3269.56 3329.5 3269.56 3331.4 3268.02 3332.94 3266.12 3332.94L3245.5 3332.94C3243.6 3332.94 3242.06 3331.4 3242.06 3329.5 3242.06 3327.6 3243.6 3326.06 3245.5 3326.06ZM3293.62 3326.06 3314.25 3326.06C3316.15 3326.06 3317.69 3327.6 3317.69 3329.5 3317.69 3331.4 3316.15 3332.94 3314.25 3332.94L3293.62 3332.94C3291.73 3332.94 3290.19 3331.4 3290.19 3329.5 3290.19 3327.6 3291.73 3326.06 3293.62 3326.06ZM3341.75 3326.06 3361.5 3326.06C3363.4 3326.06 3364.94 3327.6 3364.94 3329.5 3364.94 3331.4 3363.4 3332.94 3361.5 3332.94L3341.75 3332.94C3339.85 3332.94 3338.31 3331.4 3338.31 3329.5 3338.31 3327.6 3339.85 3326.06 3341.75 3326.06Z" fill="#000000" fill-rule="nonzero" fill-opacity="1"/></g><g clip-path="url(#clip57)"><text fill="#595959" fill-opacity="1" font-family="Arial,Arial_MSFontService,sans-serif" font-style="normal" font-variant="normal" font-weight="400" font-stretch="normal" font-size="37" text-anchor="start" direction="ltr" writing-mode="lr-tb" unicode-bidi="normal" text-decoration="none" transform="matrix(1 0 0 1 3374.01 3340)">FPGA - Pred</text></g></g></svg>