<svg width="1590" height="1036" xmlns="http://www.w3.org/2000/svg" xmlns:xlink="http://www.w3.org/1999/xlink" overflow="hidden"><defs><clipPath id="clip0"><rect x="10711" y="3006" width="1590" height="1036"/></clipPath><clipPath id="clip1"><rect x="10715" y="3006" width="1584" height="1034"/></clipPath><clipPath id="clip2"><rect x="10715" y="3006" width="1584" height="1034"/></clipPath><clipPath id="clip3"><rect x="10715" y="3006" width="1584" height="1034"/></clipPath><clipPath id="clip4"><rect x="10715" y="3006" width="1584" height="1034"/></clipPath><clipPath id="clip5"><rect x="10715" y="3006" width="1584" height="1034"/></clipPath><clipPath id="clip6"><rect x="10715" y="3006" width="1584" height="1034"/></clipPath><clipPath id="clip7"><rect x="10715" y="3006" width="1584" height="1034"/></clipPath><clipPath id="clip8"><rect x="10715" y="3006" width="1584" height="1034"/></clipPath><clipPath id="clip9"><rect x="10925" y="3044" width="1354" height="842"/></clipPath><clipPath id="clip10"><rect x="10715" y="3006" width="1584" height="1034"/></clipPath><clipPath id="clip11"><rect x="10925" y="3044" width="1354" height="842"/></clipPath><clipPath id="clip12"><rect x="10715" y="3006" width="1584" height="1034"/></clipPath><clipPath id="clip13"><rect x="10925" y="3044" width="1354" height="842"/></clipPath><clipPath id="clip14"><rect x="10715" y="3006" width="1584" height="1034"/></clipPath><clipPath id="clip15"><rect x="10925" y="3044" width="1354" height="842"/></clipPath><clipPath id="clip16"><rect x="10715" y="3006" width="1584" height="1034"/></clipPath><clipPath id="clip17"><rect x="10925" y="3044" width="1354" height="842"/></clipPath><clipPath id="clip18"><rect x="10715" y="3006" width="1584" height="1034"/></clipPath><clipPath id="clip19"><rect x="10925" y="3044" width="1354" height="842"/></clipPath><clipPath id="clip20"><rect x="10715" y="3006" width="1584" height="1034"/></clipPath><clipPath id="clip21"><rect x="10925" y="3044" width="1354" height="842"/></clipPath><clipPath id="clip22"><rect x="10925" y="3044" width="1354" height="842"/></clipPath><clipPath id="clip23"><rect x="10925" y="3044" width="1354" height="842"/></clipPath><clipPath id="clip24"><rect x="10715" y="3006" width="1584" height="1034"/></clipPath><clipPath id="clip25"><rect x="10715" y="3006" width="1584" height="1034"/></clipPath><clipPath id="clip26"><rect x="10715" y="3006" width="1584" height="1034"/></clipPath><clipPath id="clip27"><rect x="10715" y="3006" width="1584" height="1034"/></clipPath><clipPath id="clip28"><rect x="10715" y="3006" width="1584" height="1034"/></clipPath><clipPath id="clip29"><rect x="10715" y="3006" width="1584" height="1034"/></clipPath><clipPath id="clip30"><rect x="10715" y="3006" width="1584" height="1034"/></clipPath><clipPath id="clip31"><rect x="10715" y="3006" width="1584" height="1034"/></clipPath><clipPath id="clip32"><rect x="10715" y="3006" width="1584" height="1034"/></clipPath><clipPath id="clip33"><rect x="10715" y="3006" width="1584" height="1034"/></clipPath><clipPath id="clip34"><rect x="10715" y="3006" width="1584" height="1034"/></clipPath><clipPath id="clip35"><rect x="10715" y="3006" width="1584" height="1034"/></clipPath><clipPath id="clip36"><rect x="10715" y="3006" width="1584" height="1034"/></clipPath><clipPath id="clip37"><rect x="10715" y="3006" width="1584" height="1034"/></clipPath><clipPath id="clip38"><rect x="10715" y="3006" width="1584" height="1034"/></clipPath><clipPath id="clip39"><rect x="10715" y="3006" width="1584" height="1034"/></clipPath><clipPath id="clip40"><rect x="10715" y="3006" width="1584" height="1034"/></clipPath><clipPath id="clip41"><rect x="10715" y="3006" width="1584" height="1034"/></clipPath><clipPath id="clip42"><rect x="10715" y="3006" width="1584" height="1034"/></clipPath><clipPath id="clip43"><rect x="10715" y="3006" width="1584" height="1034"/></clipPath><clipPath id="clip44"><rect x="10715" y="3006" width="1584" height="1034"/></clipPath><clipPath id="clip45"><rect x="10715" y="3006" width="1584" height="1034"/></clipPath><clipPath id="clip46"><rect x="10715" y="3006" width="1584" height="1034"/></clipPath><clipPath id="clip47"><rect x="10715" y="3006" width="1584" height="1034"/></clipPath><clipPath id="clip48"><rect x="10715" y="3006" width="1584" height="1034"/></clipPath><clipPath id="clip49"><rect x="10715" y="3006" width="1584" height="1034"/></clipPath><clipPath id="clip50"><rect x="10715" y="3006" width="1584" height="1034"/></clipPath><clipPath id="clip51"><rect x="10715" y="3006" width="1584" height="1034"/></clipPath><clipPath id="clip52"><rect x="10715" y="3006" width="1584" height="1034"/></clipPath><clipPath id="clip53"><rect x="10715" y="3006" width="1584" height="1034"/></clipPath><clipPath id="clip54"><rect x="10715" y="3006" width="1584" height="1034"/></clipPath><clipPath id="clip55"><rect x="10715" y="3006" width="1584" height="1034"/></clipPath><clipPath id="clip56"><rect x="10715" y="3006" width="1584" height="1034"/></clipPath><clipPath id="clip57"><rect x="10715" y="3006" width="1584" height="1034"/></clipPath></defs><g clip-path="url(#clip0)" transform="translate(-10711 -3006)"><rect x="10716" y="3007" width="1584" height="1033" fill="#FFFFFF" fill-opacity="1"/><g clip-path="url(#clip1)"><path d="M10925.5 3814.63 12276.5 3814.63M10925.5 3774.62 12276.5 3774.62M10925.5 3746.62 12276.5 3746.62M10925.5 3724.62 12276.5 3724.62M10925.5 3706.62 12276.5 3706.62M10925.5 3691.62 12276.5 3691.62M10925.5 3678.62 12276.5 3678.62M10925.5 3666.62 12276.5 3666.62M10925.5 3587.62 12276.5 3587.62M10925.5 3547.62 12276.5 3547.62M10925.5 3519.62 12276.5 3519.62M10925.5 3497.61 12276.5 3497.61M10925.5 3479.61 12276.5 3479.61M10925.5 3464.61 12276.5 3464.61M10925.5 3451.61 12276.5 3451.61M10925.5 3439.61 12276.5 3439.61M10925.5 3361.61 12276.5 3361.61M10925.5 3321.61 12276.5 3321.61M10925.5 3292.61 12276.5 3292.61M10925.5 3270.61 12276.5 3270.61M10925.5 3252.61 12276.5 3252.61M10925.5 3237.61 12276.5 3237.61M10925.5 3224.61 12276.5 3224.61M10925.5 3213.61 12276.5 3213.61M10925.5 3134.6 12276.5 3134.6M10925.5 3094.6 12276.5 3094.6M10925.5 3066.6 12276.5 3066.6M10925.5 3044.5 12276.5 3044.5" stroke="#F2F2F2" stroke-width="3.4375" stroke-linecap="butt" stroke-linejoin="round" stroke-miterlimit="10" stroke-opacity="1" fill="none" fill-rule="nonzero"/></g><g clip-path="url(#clip2)"><path d="M10925.5 3656.62 12276.5 3656.62M10925.5 3429.61 12276.5 3429.61M10925.5 3202.5 12276.5 3202.5" stroke="#D9D9D9" stroke-width="3.4375" stroke-linecap="butt" stroke-linejoin="round" stroke-miterlimit="10" stroke-opacity="1" fill="none" fill-rule="nonzero"/></g><g clip-path="url(#clip3)"><path d="M11037.9 3044.5 11037.9 3882.5M11262.9 3044.5 11262.9 3882.5M11487.9 3044.5 11487.9 3882.5M11713.9 3044.5 11713.9 3882.5M11938.9 3044.5 11938.9 3882.5M12163.9 3044.5 12163.9 3882.5" stroke="#C9C9C9" stroke-width="3.4375" stroke-linecap="butt" stroke-linejoin="round" stroke-miterlimit="10" stroke-opacity="1" fill="none" fill-rule="nonzero"/></g><g clip-path="url(#clip4)"><path d="M11150.9 3044.5 11150.9 3882.5M11375.9 3044.5 11375.9 3882.5M11600.9 3044.5 11600.9 3882.5M11825.9 3044.5 11825.9 3882.5M12050.9 3044.5 12050.9 3882.5M12276.5 3044.5 12276.5 3882.5" stroke="#D9D9D9" stroke-width="3.4375" stroke-linecap="butt" stroke-linejoin="round" stroke-miterlimit="10" stroke-opacity="1" fill="none" fill-rule="nonzero"/></g><g clip-path="url(#clip5)"><rect x="10925.5" y="3044.5" width="1351" height="838" stroke="#000000" stroke-width="3.4375" stroke-linecap="butt" stroke-linejoin="round" stroke-miterlimit="10" stroke-opacity="1" fill="none"/></g><g clip-path="url(#clip6)"><path d="M0 0 0.000360892 838" stroke="#7C7C7C" stroke-width="3.4375" stroke-linecap="butt" stroke-linejoin="round" stroke-miterlimit="10" stroke-opacity="1" fill="none" fill-rule="evenodd" transform="matrix(1 0 0 -1 10925.5 3882.5)"/></g><g clip-path="url(#clip7)"><path d="M10925.5 3882.5 12276.5 3882.5" stroke="#7C7C7C" stroke-width="3.4375" stroke-linecap="butt" stroke-linejoin="round" stroke-miterlimit="10" stroke-opacity="1" fill="none" fill-rule="evenodd"/></g><g clip-path="url(#clip8)"><path d="M11037.5 3882.5 11037.5 3892.5M11262.9 3882.5 11262.9 3892.5M11487.9 3882.5 11487.9 3892.5M11713.9 3882.5 11713.9 3892.5M11938.9 3882.5 11938.9 3892.5M12163.9 3882.5 12163.9 3892.5M12276.5 3882.5 12276.5 3892.5" stroke="#7C7C7C" stroke-width="3.4375" stroke-linecap="butt" stroke-linejoin="round" stroke-miterlimit="10" stroke-opacity="1" fill="none" fill-rule="nonzero"/></g><g clip-path="url(#clip9)"><path d="M11037.5 3558.5 11262.9 3485.61 11487.9 3431.61 11713.9 3386.61 11938.9 3351.61 12163.5 3321.5" stroke="#548235" stroke-width="6.875" stroke-linecap="round" stroke-linejoin="round" stroke-miterlimit="10" stroke-opacity="1" fill="none" fill-rule="nonzero"/></g><g clip-path="url(#clip10)"><path d="M11048.3 3558.17C11048.3 3564.24 11043.4 3569.17 11037.3 3569.17 11031.3 3569.17 11026.3 3564.24 11026.3 3558.17 11026.3 3552.09 11031.3 3547.17 11037.3 3547.17 11043.4 3547.17 11048.3 3552.09 11048.3 3558.17Z" stroke="#548235" stroke-width="3.4375" stroke-linecap="butt" stroke-linejoin="round" stroke-miterlimit="10" stroke-opacity="1" fill="#548235" fill-rule="nonzero" fill-opacity="1"/><path d="M11274.3 3485.17C11274.3 3491.24 11269.4 3496.17 11263.3 3496.17 11257.3 3496.17 11252.3 3491.24 11252.3 3485.17 11252.3 3479.09 11257.3 3474.17 11263.3 3474.17 11269.4 3474.17 11274.3 3479.09 11274.3 3485.17Z" stroke="#548235" stroke-width="3.4375" stroke-linecap="butt" stroke-linejoin="round" stroke-miterlimit="10" stroke-opacity="1" fill="#548235" fill-rule="nonzero" fill-opacity="1"/><path d="M11499.3 3431.17C11499.3 3437.24 11494.4 3442.17 11488.3 3442.17 11482.3 3442.17 11477.3 3437.24 11477.3 3431.17 11477.3 3425.09 11482.3 3420.17 11488.3 3420.17 11494.4 3420.17 11499.3 3425.09 11499.3 3431.17Z" stroke="#548235" stroke-width="3.4375" stroke-linecap="butt" stroke-linejoin="round" stroke-miterlimit="10" stroke-opacity="1" fill="#548235" fill-rule="nonzero" fill-opacity="1"/><path d="M11724.3 3386.17C11724.3 3392.24 11719.4 3397.17 11713.3 3397.17 11707.3 3397.17 11702.3 3392.24 11702.3 3386.17 11702.3 3380.09 11707.3 3375.17 11713.3 3375.17 11719.4 3375.17 11724.3 3380.09 11724.3 3386.17Z" stroke="#548235" stroke-width="3.4375" stroke-linecap="butt" stroke-linejoin="round" stroke-miterlimit="10" stroke-opacity="1" fill="#548235" fill-rule="nonzero" fill-opacity="1"/><path d="M11949.3 3351.17C11949.3 3357.24 11944.4 3362.17 11938.3 3362.17 11932.3 3362.17 11927.3 3357.24 11927.3 3351.17 11927.3 3345.09 11932.3 3340.17 11938.3 3340.17 11944.4 3340.17 11949.3 3345.09 11949.3 3351.17Z" stroke="#548235" stroke-width="3.4375" stroke-linecap="butt" stroke-linejoin="round" stroke-miterlimit="10" stroke-opacity="1" fill="#548235" fill-rule="nonzero" fill-opacity="1"/><path d="M12174.3 3321.17C12174.3 3327.24 12169.4 3332.17 12163.3 3332.17 12157.3 3332.17 12152.3 3327.24 12152.3 3321.17 12152.3 3315.09 12157.3 3310.17 12163.3 3310.17 12169.4 3310.17 12174.3 3315.09 12174.3 3321.17Z" stroke="#548235" stroke-width="3.4375" stroke-linecap="butt" stroke-linejoin="round" stroke-miterlimit="10" stroke-opacity="1" fill="#548235" fill-rule="nonzero" fill-opacity="1"/></g><g clip-path="url(#clip11)"><path d="M11037.5 3624.5 11262.9 3565.62 11487.9 3523.62 11713.9 3484.61 11938.9 3451.61 12163.5 3424.5" stroke="#92D050" stroke-width="4.58333" stroke-linecap="round" stroke-linejoin="round" stroke-miterlimit="10" stroke-opacity="1" fill="none" fill-rule="nonzero"/></g><g clip-path="url(#clip12)"><path d="M11021.3 3608.17 11052.3 3608.17 11052.3 3639.17 11021.3 3639.17Z" stroke="#000000" stroke-width="3.4375" stroke-linecap="butt" stroke-linejoin="round" stroke-miterlimit="10" stroke-opacity="1" fill="#92D050" fill-rule="nonzero" fill-opacity="1"/><path d="M11247.3 3549.17 11278.3 3549.17 11278.3 3580.17 11247.3 3580.17Z" stroke="#000000" stroke-width="3.4375" stroke-linecap="butt" stroke-linejoin="round" stroke-miterlimit="10" stroke-opacity="1" fill="#92D050" fill-rule="nonzero" fill-opacity="1"/><path d="M11472.3 3507.17 11503.3 3507.17 11503.3 3538.17 11472.3 3538.17Z" stroke="#000000" stroke-width="3.4375" stroke-linecap="butt" stroke-linejoin="round" stroke-miterlimit="10" stroke-opacity="1" fill="#92D050" fill-rule="nonzero" fill-opacity="1"/><path d="M11697.3 3469.17 11728.3 3469.17 11728.3 3500.17 11697.3 3500.17Z" stroke="#000000" stroke-width="3.4375" stroke-linecap="butt" stroke-linejoin="round" stroke-miterlimit="10" stroke-opacity="1" fill="#92D050" fill-rule="nonzero" fill-opacity="1"/><path d="M11922.3 3436.17 11953.3 3436.17 11953.3 3467.17 11922.3 3467.17Z" stroke="#000000" stroke-width="3.4375" stroke-linecap="butt" stroke-linejoin="round" stroke-miterlimit="10" stroke-opacity="1" fill="#92D050" fill-rule="nonzero" fill-opacity="1"/><path d="M12147.3 3408.17 12178.3 3408.17 12178.3 3439.17 12147.3 3439.17Z" stroke="#000000" stroke-width="3.4375" stroke-linecap="butt" stroke-linejoin="round" stroke-miterlimit="10" stroke-opacity="1" fill="#92D050" fill-rule="nonzero" fill-opacity="1"/></g><g clip-path="url(#clip13)"><path d="M11037.5 3666.5 11262.9 3621.62 11487.9 3590.62 11713.9 3564.62 11938.9 3541.62 12163.5 3522.5" stroke="#548235" stroke-width="4.58333" stroke-linecap="round" stroke-linejoin="round" stroke-miterlimit="10" stroke-opacity="1" fill="none" fill-rule="nonzero"/></g><g clip-path="url(#clip14)"><path d="M11049.3 3665.17C11049.3 3672.35 11043.5 3678.17 11036.3 3678.17 11029.2 3678.17 11023.3 3672.35 11023.3 3665.17 11023.3 3657.99 11029.2 3652.17 11036.3 3652.17 11043.5 3652.17 11049.3 3657.99 11049.3 3665.17Z" stroke="#000000" stroke-width="3.4375" stroke-linecap="butt" stroke-linejoin="round" stroke-miterlimit="10" stroke-opacity="1" fill="#548235" fill-rule="nonzero" fill-opacity="1"/><path d="M11275.3 3620.17C11275.3 3627.35 11269.5 3633.17 11262.3 3633.17 11255.2 3633.17 11249.3 3627.35 11249.3 3620.17 11249.3 3612.99 11255.2 3607.17 11262.3 3607.17 11269.5 3607.17 11275.3 3612.99 11275.3 3620.17Z" stroke="#000000" stroke-width="3.4375" stroke-linecap="butt" stroke-linejoin="round" stroke-miterlimit="10" stroke-opacity="1" fill="#548235" fill-rule="nonzero" fill-opacity="1"/><path d="M11500.3 3589.17C11500.3 3596.35 11494.5 3602.17 11487.3 3602.17 11480.2 3602.17 11474.3 3596.35 11474.3 3589.17 11474.3 3581.99 11480.2 3576.17 11487.3 3576.17 11494.5 3576.17 11500.3 3581.99 11500.3 3589.17Z" stroke="#000000" stroke-width="3.4375" stroke-linecap="butt" stroke-linejoin="round" stroke-miterlimit="10" stroke-opacity="1" fill="#548235" fill-rule="nonzero" fill-opacity="1"/><path d="M11725.3 3563.17C11725.3 3570.35 11719.5 3576.17 11712.3 3576.17 11705.2 3576.17 11699.3 3570.35 11699.3 3563.17 11699.3 3555.99 11705.2 3550.17 11712.3 3550.17 11719.5 3550.17 11725.3 3555.99 11725.3 3563.17Z" stroke="#000000" stroke-width="3.4375" stroke-linecap="butt" stroke-linejoin="round" stroke-miterlimit="10" stroke-opacity="1" fill="#548235" fill-rule="nonzero" fill-opacity="1"/><path d="M11950.3 3540.17C11950.3 3547.35 11944.5 3553.17 11937.3 3553.17 11930.2 3553.17 11924.3 3547.35 11924.3 3540.17 11924.3 3532.99 11930.2 3527.17 11937.3 3527.17 11944.5 3527.17 11950.3 3532.99 11950.3 3540.17Z" stroke="#000000" stroke-width="3.4375" stroke-linecap="butt" stroke-linejoin="round" stroke-miterlimit="10" stroke-opacity="1" fill="#548235" fill-rule="nonzero" fill-opacity="1"/><path d="M12175.3 3521.17C12175.3 3528.35 12169.5 3534.17 12162.3 3534.17 12155.2 3534.17 12149.3 3528.35 12149.3 3521.17 12149.3 3513.99 12155.2 3508.17 12162.3 3508.17 12169.5 3508.17 12175.3 3513.99 12175.3 3521.17Z" stroke="#000000" stroke-width="3.4375" stroke-linecap="butt" stroke-linejoin="round" stroke-miterlimit="10" stroke-opacity="1" fill="#548235" fill-rule="nonzero" fill-opacity="1"/></g><g clip-path="url(#clip15)"><path d="M11037.5 3561.5 11262.9 3481.61 11487.9 3426.61 11713.9 3382.61 11938.9 3347.61 12163.5 3316.5" stroke="#0070C0" stroke-width="6.875" stroke-linecap="round" stroke-linejoin="round" stroke-miterlimit="10" stroke-opacity="1" fill="none" fill-rule="nonzero"/></g><g clip-path="url(#clip16)"><path d="M11048.3 3561.17C11048.3 3567.24 11043.4 3572.17 11037.3 3572.17 11031.3 3572.17 11026.3 3567.24 11026.3 3561.17 11026.3 3555.09 11031.3 3550.17 11037.3 3550.17 11043.4 3550.17 11048.3 3555.09 11048.3 3561.17Z" stroke="#2E75B6" stroke-width="3.4375" stroke-linecap="butt" stroke-linejoin="round" stroke-miterlimit="10" stroke-opacity="1" fill="#2E75B6" fill-rule="nonzero" fill-opacity="1"/><path d="M11274.3 3482.17C11274.3 3488.24 11269.4 3493.17 11263.3 3493.17 11257.3 3493.17 11252.3 3488.24 11252.3 3482.17 11252.3 3476.09 11257.3 3471.17 11263.3 3471.17 11269.4 3471.17 11274.3 3476.09 11274.3 3482.17Z" stroke="#2E75B6" stroke-width="3.4375" stroke-linecap="butt" stroke-linejoin="round" stroke-miterlimit="10" stroke-opacity="1" fill="#2E75B6" fill-rule="nonzero" fill-opacity="1"/><path d="M11499.3 3426.17C11499.3 3432.24 11494.4 3437.17 11488.3 3437.17 11482.3 3437.17 11477.3 3432.24 11477.3 3426.17 11477.3 3420.09 11482.3 3415.17 11488.3 3415.17 11494.4 3415.17 11499.3 3420.09 11499.3 3426.17Z" stroke="#2E75B6" stroke-width="3.4375" stroke-linecap="butt" stroke-linejoin="round" stroke-miterlimit="10" stroke-opacity="1" fill="#2E75B6" fill-rule="nonzero" fill-opacity="1"/><path d="M11724.3 3382.17C11724.3 3388.24 11719.4 3393.17 11713.3 3393.17 11707.3 3393.17 11702.3 3388.24 11702.3 3382.17 11702.3 3376.09 11707.3 3371.17 11713.3 3371.17 11719.4 3371.17 11724.3 3376.09 11724.3 3382.17Z" stroke="#2E75B6" stroke-width="3.4375" stroke-linecap="butt" stroke-linejoin="round" stroke-miterlimit="10" stroke-opacity="1" fill="#2E75B6" fill-rule="nonzero" fill-opacity="1"/><path d="M11949.3 3347.17C11949.3 3353.24 11944.4 3358.17 11938.3 3358.17 11932.3 3358.17 11927.3 3353.24 11927.3 3347.17 11927.3 3341.09 11932.3 3336.17 11938.3 3336.17 11944.4 3336.17 11949.3 3341.09 11949.3 3347.17Z" stroke="#2E75B6" stroke-width="3.4375" stroke-linecap="butt" stroke-linejoin="round" stroke-miterlimit="10" stroke-opacity="1" fill="#2E75B6" fill-rule="nonzero" fill-opacity="1"/><path d="M12174.3 3316.17C12174.3 3322.24 12169.4 3327.17 12163.3 3327.17 12157.3 3327.17 12152.3 3322.24 12152.3 3316.17 12152.3 3310.09 12157.3 3305.17 12163.3 3305.17 12169.4 3305.17 12174.3 3310.09 12174.3 3316.17Z" stroke="#2E75B6" stroke-width="3.4375" stroke-linecap="butt" stroke-linejoin="round" stroke-miterlimit="10" stroke-opacity="1" fill="#2E75B6" fill-rule="nonzero" fill-opacity="1"/></g><g clip-path="url(#clip17)"><path d="M11037.5 3665.5 11262.9 3587.62 11487.9 3533.62 11713.9 3489.61 11938.9 3454.61 12163.5 3423.5" stroke="#0070C0" stroke-width="6.875" stroke-linecap="round" stroke-linejoin="round" stroke-miterlimit="10" stroke-opacity="1" fill="none" fill-rule="nonzero"/></g><g clip-path="url(#clip18)"><path d="M11037.3 3647.17 11055.3 3683.17 11019.3 3683.17Z" stroke="#000000" stroke-width="3.4375" stroke-linecap="butt" stroke-linejoin="round" stroke-miterlimit="10" stroke-opacity="0.941176" fill="#0070C0" fill-rule="nonzero" fill-opacity="1"/><path d="M11263.3 3569.17 11281.3 3605.17 11245.3 3605.17Z" stroke="#000000" stroke-width="3.4375" stroke-linecap="butt" stroke-linejoin="round" stroke-miterlimit="10" stroke-opacity="0.941176" fill="#0070C0" fill-rule="nonzero" fill-opacity="1"/><path d="M11488.3 3515.17 11506.3 3551.17 11470.3 3551.17Z" stroke="#000000" stroke-width="3.4375" stroke-linecap="butt" stroke-linejoin="round" stroke-miterlimit="10" stroke-opacity="0.941176" fill="#0070C0" fill-rule="nonzero" fill-opacity="1"/><path d="M11713.3 3471.17 11731.3 3507.17 11695.3 3507.17Z" stroke="#000000" stroke-width="3.4375" stroke-linecap="butt" stroke-linejoin="round" stroke-miterlimit="10" stroke-opacity="0.941176" fill="#0070C0" fill-rule="nonzero" fill-opacity="1"/><path d="M11938.3 3436.17 11956.3 3472.17 11920.3 3472.17Z" stroke="#000000" stroke-width="3.4375" stroke-linecap="butt" stroke-linejoin="round" stroke-miterlimit="10" stroke-opacity="0.941176" fill="#0070C0" fill-rule="nonzero" fill-opacity="1"/><path d="M12163.3 3405.17 12181.3 3441.17 12145.3 3441.17Z" stroke="#000000" stroke-width="3.4375" stroke-linecap="butt" stroke-linejoin="round" stroke-miterlimit="10" stroke-opacity="0.941176" fill="#0070C0" fill-rule="nonzero" fill-opacity="1"/></g><g clip-path="url(#clip19)"><path d="M11037.5 3802.5 11262.9 3731.62 11487.9 3683.62 11713.9 3641.62 11938.9 3607.62 12163.5 3577.5" stroke="#0070C0" stroke-width="6.875" stroke-linecap="round" stroke-linejoin="round" stroke-miterlimit="10" stroke-opacity="1" fill="none" fill-rule="nonzero"/></g><g clip-path="url(#clip20)"><path d="M11048.3 3802.17C11048.3 3808.24 11043.4 3813.17 11037.3 3813.17 11031.3 3813.17 11026.3 3808.24 11026.3 3802.17 11026.3 3796.09 11031.3 3791.17 11037.3 3791.17 11043.4 3791.17 11048.3 3796.09 11048.3 3802.17Z" stroke="#000000" stroke-width="3.4375" stroke-linecap="butt" stroke-linejoin="round" stroke-miterlimit="10" stroke-opacity="1" fill="#0070C0" fill-rule="nonzero" fill-opacity="1"/><path d="M11274.3 3731.17C11274.3 3737.24 11269.4 3742.17 11263.3 3742.17 11257.3 3742.17 11252.3 3737.24 11252.3 3731.17 11252.3 3725.09 11257.3 3720.17 11263.3 3720.17 11269.4 3720.17 11274.3 3725.09 11274.3 3731.17Z" stroke="#000000" stroke-width="3.4375" stroke-linecap="butt" stroke-linejoin="round" stroke-miterlimit="10" stroke-opacity="1" fill="#0070C0" fill-rule="nonzero" fill-opacity="1"/><path d="M11499.3 3683.17C11499.3 3689.24 11494.4 3694.17 11488.3 3694.17 11482.3 3694.17 11477.3 3689.24 11477.3 3683.17 11477.3 3677.09 11482.3 3672.17 11488.3 3672.17 11494.4 3672.17 11499.3 3677.09 11499.3 3683.17Z" stroke="#000000" stroke-width="3.4375" stroke-linecap="butt" stroke-linejoin="round" stroke-miterlimit="10" stroke-opacity="1" fill="#0070C0" fill-rule="nonzero" fill-opacity="1"/><path d="M11724.3 3641.17C11724.3 3647.24 11719.4 3652.17 11713.3 3652.17 11707.3 3652.17 11702.3 3647.24 11702.3 3641.17 11702.3 3635.09 11707.3 3630.17 11713.3 3630.17 11719.4 3630.17 11724.3 3635.09 11724.3 3641.17Z" stroke="#000000" stroke-width="3.4375" stroke-linecap="butt" stroke-linejoin="round" stroke-miterlimit="10" stroke-opacity="1" fill="#0070C0" fill-rule="nonzero" fill-opacity="1"/><path d="M11949.3 3607.17C11949.3 3613.24 11944.4 3618.17 11938.3 3618.17 11932.3 3618.17 11927.3 3613.24 11927.3 3607.17 11927.3 3601.09 11932.3 3596.17 11938.3 3596.17 11944.4 3596.17 11949.3 3601.09 11949.3 3607.17Z" stroke="#000000" stroke-width="3.4375" stroke-linecap="butt" stroke-linejoin="round" stroke-miterlimit="10" stroke-opacity="1" fill="#0070C0" fill-rule="nonzero" fill-opacity="1"/><path d="M12174.3 3577.17C12174.3 3583.24 12169.4 3588.17 12163.3 3588.17 12157.3 3588.17 12152.3 3583.24 12152.3 3577.17 12152.3 3571.09 12157.3 3566.17 12163.3 3566.17 12169.4 3566.17 12174.3 3571.09 12174.3 3577.17Z" stroke="#000000" stroke-width="3.4375" stroke-linecap="butt" stroke-linejoin="round" stroke-miterlimit="10" stroke-opacity="1" fill="#0070C0" fill-rule="nonzero" fill-opacity="1"/></g><g clip-path="url(#clip21)"><path d="M11036.4 3557.26 11055.8 3550.44C11057.6 3549.81 11059.6 3550.76 11060.2 3552.55 11060.8 3554.34 11059.9 3556.3 11058.1 3556.93L11038.6 3563.74C11036.8 3564.37 11034.9 3563.43 11034.3 3561.64 11033.6 3559.84 11034.6 3557.88 11036.4 3557.26ZM11081.8 3541.36 11101.3 3534.54C11103 3533.92 11105 3534.86 11105.6 3536.65 11106.3 3538.44 11105.3 3540.4 11103.5 3541.03L11084.1 3547.85C11082.3 3548.47 11080.3 3547.53 11079.7 3545.74 11079.1 3543.94 11080 3541.98 11081.8 3541.36ZM11127.2 3525.46 11146.7 3518.64C11148.5 3518.02 11150.4 3518.96 11151.1 3520.75 11151.7 3522.54 11150.7 3524.5 11148.9 3525.13L11129.5 3531.95C11127.7 3532.57 11125.7 3531.63 11125.1 3529.84 11124.5 3528.05 11125.4 3526.08 11127.2 3525.46ZM11172.6 3509.56 11192.1 3502.74C11193.9 3502.12 11195.9 3503.06 11196.5 3504.85 11197.1 3506.64 11196.2 3508.61 11194.4 3509.23L11174.9 3516.05C11173.1 3516.67 11171.2 3515.73 11170.5 3513.94 11169.9 3512.15 11170.8 3510.19 11172.6 3509.56ZM11218.1 3493.66 11237.5 3486.84C11239.3 3486.22 11241.3 3487.16 11241.9 3488.95 11242.5 3490.75 11241.6 3492.71 11239.8 3493.33L11220.3 3500.15C11218.5 3500.77 11216.6 3499.83 11215.9 3498.04 11215.3 3496.25 11216.3 3494.29 11218.1 3493.66ZM11263.8 3477.83 11283.8 3472.85C11285.7 3472.39 11287.6 3473.51 11288 3475.36 11288.5 3477.2 11287.3 3479.06 11285.5 3479.52L11265.5 3484.5C11263.7 3484.96 11261.8 3483.84 11261.3 3482 11260.9 3480.16 11262 3478.29 11263.8 3477.83ZM11310.5 3466.21 11330.5 3461.23C11332.4 3460.77 11334.3 3461.89 11334.7 3463.73 11335.2 3465.58 11334 3467.44 11332.2 3467.9L11312.2 3472.88C11310.4 3473.34 11308.5 3472.22 11308 3470.38 11307.6 3468.53 11308.7 3466.67 11310.5 3466.21ZM11357.2 3454.59 11377.2 3449.6C11379.1 3449.15 11381 3450.27 11381.4 3452.11 11381.9 3453.95 11380.8 3455.82 11378.9 3456.28L11358.9 3461.26C11357.1 3461.72 11355.2 3460.59 11354.7 3458.75 11354.3 3456.91 11355.4 3455.04 11357.2 3454.59ZM11403.9 3442.96 11423.9 3437.98C11425.8 3437.52 11427.7 3438.64 11428.1 3440.49 11428.6 3442.33 11427.5 3444.19 11425.6 3444.65L11405.6 3449.63C11403.8 3450.09 11401.9 3448.97 11401.4 3447.13 11401 3445.29 11402.1 3443.42 11403.9 3442.96ZM11450.6 3431.34 11470.6 3426.36C11472.5 3425.9 11474.4 3427.02 11474.8 3428.86 11475.3 3430.71 11474.2 3432.57 11472.3 3433.03L11452.3 3438.01C11450.5 3438.47 11448.6 3437.35 11448.1 3435.51 11447.7 3433.66 11448.8 3431.8 11450.6 3431.34ZM11497.6 3420.21 11517.9 3416.27C11519.7 3415.91 11521.5 3417.12 11521.9 3418.99 11522.3 3420.85 11521 3422.66 11519.2 3423.02L11498.9 3426.96C11497.1 3427.32 11495.3 3426.11 11494.9 3424.24 11494.5 3422.38 11495.8 3420.58 11497.6 3420.21ZM11544.9 3411.02 11565.1 3407.07C11567 3406.71 11568.8 3407.93 11569.1 3409.79 11569.5 3411.66 11568.3 3413.46 11566.4 3413.82L11546.2 3417.76C11544.3 3418.13 11542.5 3416.91 11542.1 3415.05 11541.8 3413.18 11543 3411.38 11544.9 3411.02ZM11592.1 3401.82 11612.3 3397.88C11614.2 3397.51 11616 3398.73 11616.4 3400.59 11616.7 3402.46 11615.5 3404.26 11613.7 3404.63L11593.4 3408.57C11591.6 3408.93 11589.7 3407.71 11589.4 3405.85 11589 3403.99 11590.2 3402.18 11592.1 3401.82ZM11639.3 3392.62 11659.6 3388.68C11661.4 3388.32 11663.3 3389.53 11663.6 3391.4 11664 3393.26 11662.8 3395.07 11660.9 3395.43L11640.7 3399.37C11638.8 3399.73 11637 3398.52 11636.6 3396.65 11636.3 3394.79 11637.5 3392.98 11639.3 3392.62ZM11686.6 3383.43 11706.8 3379.48C11708.7 3379.12 11710.5 3380.34 11710.9 3382.2 11711.2 3384.06 11710 3385.87 11708.1 3386.23L11687.9 3390.17C11686 3390.54 11684.2 3389.32 11683.9 3387.46 11683.5 3385.59 11684.7 3383.79 11686.6 3383.43ZM11734.1 3374.9 11754.4 3371.64C11756.3 3371.34 11758.1 3372.62 11758.4 3374.5 11758.7 3376.37 11757.4 3378.13 11755.5 3378.43L11735.1 3381.69C11733.3 3381.99 11731.5 3380.72 11731.2 3378.84 11730.9 3376.97 11732.2 3375.2 11734.1 3374.9ZM11781.6 3367.3 11801.9 3364.04C11803.8 3363.74 11805.6 3365.02 11805.9 3366.89 11806.2 3368.77 11804.9 3370.53 11803 3370.83L11782.7 3374.09C11780.8 3374.39 11779 3373.11 11778.7 3371.24 11778.4 3369.36 11779.7 3367.6 11781.6 3367.3ZM11829.1 3359.7 11849.5 3356.44C11851.3 3356.14 11853.1 3357.41 11853.4 3359.29 11853.7 3361.16 11852.4 3362.93 11850.5 3363.23L11830.2 3366.49C11828.3 3366.78 11826.5 3365.51 11826.2 3363.63 11825.9 3361.76 11827.2 3360 11829.1 3359.7ZM11876.6 3352.09 11897 3348.83C11898.9 3348.53 11900.6 3349.81 11900.9 3351.69 11901.2 3353.56 11899.9 3355.32 11898.1 3355.62L11877.7 3358.88C11875.8 3359.18 11874.1 3357.91 11873.8 3356.03 11873.5 3354.16 11874.7 3352.39 11876.6 3352.09ZM11924.1 3344.49 11938.3 3342.22 11944.6 3341.38C11946.5 3341.12 11948.2 3342.44 11948.5 3344.33 11948.7 3346.21 11947.4 3347.94 11945.5 3348.19L11939.4 3349 11925.2 3351.28C11923.3 3351.58 11921.6 3350.3 11921.3 3348.43 11921 3346.55 11922.3 3344.79 11924.1 3344.49ZM11971.9 3337.72 11992.3 3334.98C11994.2 3334.73 11995.9 3336.05 11996.2 3337.93 11996.4 3339.81 11995.1 3341.54 11993.2 3341.79L11972.8 3344.54C11970.9 3344.79 11969.2 3343.47 11968.9 3341.58 11968.7 3339.7 11970 3337.97 11971.9 3337.72ZM12019.6 3331.33 12040 3328.59C12041.9 3328.33 12043.6 3329.66 12043.9 3331.54 12044.1 3333.42 12042.8 3335.15 12040.9 3335.4L12020.5 3338.14C12018.6 3338.39 12016.9 3337.07 12016.6 3335.19 12016.4 3333.31 12017.7 3331.58 12019.6 3331.33ZM12067.3 3324.93 12087.7 3322.19C12089.6 3321.94 12091.3 3323.26 12091.6 3325.14 12091.8 3327.02 12090.5 3328.75 12088.6 3329.01L12068.2 3331.75C12066.3 3332 12064.6 3330.68 12064.3 3328.8 12064.1 3326.91 12065.4 3325.19 12067.3 3324.93ZM12115 3318.54 12135.4 3315.8C12137.3 3315.55 12139 3316.87 12139.3 3318.75 12139.5 3320.63 12138.2 3322.36 12136.3 3322.61L12115.9 3325.35C12114 3325.6 12112.3 3324.28 12112 3322.4 12111.8 3320.52 12113.1 3318.79 12115 3318.54ZM12162.7 3312.14 12163 3312.09C12164.9 3311.84 12166.7 3313.16 12166.9 3315.04 12167.2 3316.92 12165.8 3318.65 12164 3318.91L12163.6 3318.96C12161.7 3319.21 12160 3317.89 12159.7 3316.01 12159.5 3314.13 12160.8 3312.4 12162.7 3312.14Z" fill="#000000" fill-rule="nonzero" fill-opacity="1"/></g><g clip-path="url(#clip22)"><path d="M11036.4 3662.25 11055.9 3655.51C11057.7 3654.89 11059.6 3655.85 11060.2 3657.64 11060.9 3659.43 11059.9 3661.39 11058.1 3662.01L11038.6 3668.75C11036.8 3669.37 11034.9 3668.42 11034.3 3666.62 11033.6 3664.83 11034.6 3662.87 11036.4 3662.25ZM11081.9 3646.53 11101.4 3639.8C11103.2 3639.18 11105.1 3640.13 11105.7 3641.92 11106.3 3643.72 11105.4 3645.67 11103.6 3646.29L11084.1 3653.03C11082.3 3653.65 11080.4 3652.7 11079.7 3650.9 11079.1 3649.11 11080.1 3647.15 11081.9 3646.53ZM11127.3 3630.81 11146.8 3624.08C11148.6 3623.46 11150.6 3624.41 11151.2 3626.2 11151.8 3628 11150.9 3629.95 11149.1 3630.57L11129.6 3637.31C11127.8 3637.93 11125.8 3636.98 11125.2 3635.19 11124.6 3633.39 11125.6 3631.43 11127.3 3630.81ZM11172.8 3615.09 11192.3 3608.36C11194.1 3607.74 11196.1 3608.69 11196.7 3610.48 11197.3 3612.28 11196.4 3614.24 11194.6 3614.86L11175.1 3621.59C11173.3 3622.21 11171.3 3621.26 11170.7 3619.47 11170.1 3617.67 11171 3615.71 11172.8 3615.09ZM11218.3 3599.38 11237.8 3592.64C11239.6 3592.02 11241.6 3592.97 11242.2 3594.77 11242.8 3596.56 11241.9 3598.52 11240.1 3599.14L11220.6 3605.87C11218.8 3606.49 11216.8 3605.54 11216.2 3603.75 11215.6 3601.95 11216.5 3600 11218.3 3599.38ZM11264.2 3583.76 11284.2 3578.77C11286 3578.32 11287.9 3579.44 11288.3 3581.28 11288.8 3583.12 11287.7 3584.99 11285.8 3585.45L11265.8 3590.43C11264 3590.89 11262.1 3589.76 11261.6 3587.92 11261.2 3586.08 11262.3 3584.21 11264.2 3583.76ZM11310.9 3572.13 11330.9 3567.15C11332.7 3566.69 11334.6 3567.81 11335 3569.66 11335.5 3571.5 11334.4 3573.36 11332.5 3573.82L11312.5 3578.8C11310.7 3579.26 11308.8 3578.14 11308.3 3576.3 11307.9 3574.46 11309 3572.59 11310.9 3572.13ZM11357.6 3560.51 11377.6 3555.53C11379.4 3555.07 11381.3 3556.19 11381.7 3558.03 11382.2 3559.88 11381.1 3561.74 11379.2 3562.2L11359.2 3567.18C11357.4 3567.64 11355.5 3566.52 11355 3564.68 11354.6 3562.83 11355.7 3560.97 11357.6 3560.51ZM11404.3 3548.89 11424.3 3543.91C11426.1 3543.45 11428 3544.57 11428.4 3546.41 11428.9 3548.25 11427.8 3550.12 11425.9 3550.58L11405.9 3555.56C11404.1 3556.02 11402.2 3554.89 11401.7 3553.05 11401.3 3551.21 11402.4 3549.34 11404.3 3548.89ZM11451 3537.26 11471 3532.28C11472.8 3531.82 11474.7 3532.95 11475.1 3534.79 11475.6 3536.63 11474.5 3538.49 11472.6 3538.95L11452.6 3543.93C11450.8 3544.39 11448.9 3543.27 11448.4 3541.43 11448 3539.59 11449.1 3537.72 11451 3537.26ZM11498 3526.2 11518.2 3522.34C11520.1 3521.99 11521.9 3523.21 11522.3 3525.08 11522.6 3526.94 11521.4 3528.74 11519.5 3529.09L11499.3 3532.95C11497.4 3533.3 11495.6 3532.08 11495.2 3530.22 11494.9 3528.35 11496.1 3526.55 11498 3526.2ZM11545.2 3517.2 11565.5 3513.35C11567.4 3512.99 11569.2 3514.22 11569.5 3516.08 11569.9 3517.95 11568.7 3519.74 11566.8 3520.1L11546.5 3523.95C11544.7 3524.31 11542.9 3523.09 11542.5 3521.22 11542.2 3519.36 11543.4 3517.56 11545.2 3517.2ZM11592.5 3508.21 11612.8 3504.35C11614.7 3504 11616.5 3505.22 11616.8 3507.08 11617.2 3508.95 11615.9 3510.75 11614.1 3511.1L11593.8 3514.96C11591.9 3515.31 11590.1 3514.09 11589.8 3512.23 11589.4 3510.36 11590.7 3508.56 11592.5 3508.21ZM11639.8 3499.21 11660.1 3495.36C11661.9 3495 11663.7 3496.22 11664.1 3498.09 11664.4 3499.95 11663.2 3501.75 11661.3 3502.11L11641.1 3505.96C11639.2 3506.32 11637.4 3505.09 11637.1 3503.23 11636.7 3501.36 11637.9 3499.57 11639.8 3499.21ZM11687.1 3490.22 11707.3 3486.36C11709.2 3486.01 11711 3487.23 11711.4 3489.09 11711.7 3490.96 11710.5 3492.76 11708.6 3493.11L11688.4 3496.97C11686.5 3497.32 11684.7 3496.1 11684.3 3494.23 11684 3492.37 11685.2 3490.57 11687.1 3490.22ZM11734.6 3481.82 11754.9 3478.57C11756.8 3478.27 11758.6 3479.54 11758.9 3481.42 11759.2 3483.29 11757.9 3485.05 11756 3485.35L11735.7 3488.61C11733.8 3488.91 11732 3487.64 11731.7 3485.76 11731.4 3483.89 11732.7 3482.12 11734.6 3481.82ZM11782.1 3474.22 11802.5 3470.96C11804.3 3470.66 11806.1 3471.94 11806.4 3473.81 11806.7 3475.69 11805.4 3477.45 11803.5 3477.75L11783.2 3481.01C11781.3 3481.31 11779.5 3480.03 11779.2 3478.16 11778.9 3476.28 11780.2 3474.52 11782.1 3474.22ZM11829.6 3466.62 11850 3463.36C11851.8 3463.06 11853.6 3464.34 11853.9 3466.21 11854.2 3468.08 11852.9 3469.85 11851.1 3470.15L11830.7 3473.41C11828.8 3473.71 11827.1 3472.43 11826.8 3470.56 11826.5 3468.68 11827.7 3466.92 11829.6 3466.62ZM11877.1 3459.01 11897.5 3455.76C11899.4 3455.46 11901.1 3456.73 11901.4 3458.61 11901.7 3460.48 11900.5 3462.24 11898.6 3462.54L11878.2 3465.8C11876.3 3466.1 11874.6 3464.83 11874.3 3462.95 11874 3461.08 11875.3 3459.31 11877.1 3459.01ZM11924.6 3451.41 11938.3 3449.22 11945.1 3448.31C11947 3448.06 11948.7 3449.38 11949 3451.26 11949.2 3453.14 11947.9 3454.87 11946 3455.12L11939.4 3456.01 11925.7 3458.2C11923.9 3458.5 11922.1 3457.22 11921.8 3455.35 11921.5 3453.47 11922.8 3451.71 11924.6 3451.41ZM11972.4 3444.66 11992.8 3441.91C11994.7 3441.66 11996.4 3442.98 11996.7 3444.86 11996.9 3446.75 11995.6 3448.48 11993.7 3448.73L11973.3 3451.47C11971.4 3451.72 11969.7 3450.4 11969.4 3448.52 11969.2 3446.64 11970.5 3444.91 11972.4 3444.66ZM12020.1 3438.26 12040.5 3435.52C12042.4 3435.27 12044.1 3436.59 12044.4 3438.47 12044.6 3440.35 12043.3 3442.08 12041.4 3442.33L12021 3445.07C12019.1 3445.33 12017.4 3444.01 12017.1 3442.12 12016.9 3440.24 12018.2 3438.51 12020.1 3438.26ZM12067.8 3431.87 12088.2 3429.12C12090.1 3428.87 12091.8 3430.19 12092.1 3432.07 12092.3 3433.96 12091 3435.69 12089.1 3435.94L12068.7 3438.68C12066.8 3438.93 12065.1 3437.61 12064.8 3435.73 12064.6 3433.85 12065.9 3432.12 12067.8 3431.87ZM12115.5 3425.47 12135.9 3422.73C12137.8 3422.48 12139.5 3423.8 12139.8 3425.68 12140 3427.56 12138.7 3429.29 12136.8 3429.54L12116.4 3432.28C12114.5 3432.54 12112.8 3431.22 12112.5 3429.33 12112.3 3427.45 12113.6 3425.72 12115.5 3425.47Z" fill="#000000" fill-rule="nonzero" fill-opacity="1"/></g><g clip-path="url(#clip23)"><path d="M11036.5 3800.23 11056.1 3793.96C11057.9 3793.38 11059.8 3794.38 11060.4 3796.19 11061 3798 11060 3799.93 11058.2 3800.51L11038.5 3806.78C11036.7 3807.35 11034.8 3806.35 11034.2 3804.54 11033.6 3802.74 11034.6 3800.8 11036.5 3800.23ZM11082.3 3785.6 11102 3779.34C11103.8 3778.76 11105.7 3779.76 11106.3 3781.57 11106.9 3783.37 11105.9 3785.31 11104 3785.89L11084.4 3792.15C11082.6 3792.73 11080.7 3791.73 11080.1 3789.92 11079.5 3788.11 11080.5 3786.18 11082.3 3785.6ZM11128.2 3770.98 11147.8 3764.71C11149.6 3764.14 11151.5 3765.13 11152.1 3766.94 11152.7 3768.75 11151.7 3770.69 11149.9 3771.26L11130.2 3777.53C11128.4 3778.11 11126.5 3777.11 11125.9 3775.3 11125.3 3773.49 11126.3 3771.56 11128.2 3770.98ZM11174 3756.36 11193.7 3750.09C11195.5 3749.51 11197.4 3750.51 11198 3752.32 11198.6 3754.13 11197.6 3756.06 11195.7 3756.64L11176.1 3762.91C11174.3 3763.48 11172.4 3762.48 11171.8 3760.68 11171.2 3758.87 11172.2 3756.93 11174 3756.36ZM11219.9 3741.73 11239.5 3735.47C11241.3 3734.89 11243.2 3735.89 11243.8 3737.7 11244.4 3739.51 11243.4 3741.44 11241.6 3742.02L11221.9 3748.28C11220.1 3748.86 11218.2 3747.86 11217.6 3746.05 11217 3744.24 11218 3742.31 11219.9 3741.73ZM11266.1 3727.36 11286.2 3722.71C11288 3722.29 11289.9 3723.44 11290.3 3725.29 11290.7 3727.14 11289.6 3728.98 11287.7 3729.41L11267.6 3734.06C11265.8 3734.48 11263.9 3733.33 11263.5 3731.48 11263.1 3729.63 11264.2 3727.78 11266.1 3727.36ZM11313 3716.52 11333 3711.88C11334.9 3711.45 11336.7 3712.6 11337.2 3714.45 11337.6 3716.3 11336.4 3718.15 11334.6 3718.57L11314.5 3723.22C11312.6 3723.65 11310.8 3722.49 11310.4 3720.64 11309.9 3718.79 11311.1 3716.95 11313 3716.52ZM11359.8 3705.68 11379.9 3701.04C11381.8 3700.61 11383.6 3701.76 11384.1 3703.61 11384.5 3705.46 11383.3 3707.31 11381.5 3707.74L11361.4 3712.38C11359.5 3712.81 11357.7 3711.66 11357.3 3709.81 11356.8 3707.96 11358 3706.11 11359.8 3705.68ZM11406.7 3694.85 11426.8 3690.2C11428.7 3689.78 11430.5 3690.93 11430.9 3692.78 11431.4 3694.63 11430.2 3696.47 11428.4 3696.9L11408.3 3701.55C11406.4 3701.97 11404.6 3700.82 11404.2 3698.97 11403.7 3697.12 11404.9 3695.27 11406.7 3694.85ZM11453.6 3684.01 11473.7 3679.37C11475.6 3678.94 11477.4 3680.09 11477.8 3681.94 11478.3 3683.79 11477.1 3685.64 11475.3 3686.06L11455.2 3690.71C11453.3 3691.14 11451.5 3689.98 11451 3688.13 11450.6 3686.28 11451.8 3684.44 11453.6 3684.01ZM11500.8 3673.73 11521.1 3669.96C11522.9 3669.61 11524.7 3670.84 11525.1 3672.71 11525.4 3674.58 11524.2 3676.37 11522.3 3676.72L11502 3680.49C11500.2 3680.83 11498.4 3679.6 11498 3677.74 11497.7 3675.87 11498.9 3674.07 11500.8 3673.73ZM11548.1 3664.93 11568.4 3661.17C11570.2 3660.82 11572 3662.05 11572.4 3663.92 11572.7 3665.78 11571.5 3667.58 11569.6 3667.93L11549.3 3671.69C11547.5 3672.04 11545.7 3670.81 11545.3 3668.94 11545 3667.08 11546.2 3665.28 11548.1 3664.93ZM11595.4 3656.14 11615.7 3652.37C11617.5 3652.03 11619.3 3653.26 11619.7 3655.12 11620 3656.99 11618.8 3658.79 11616.9 3659.13L11596.7 3662.9C11594.8 3663.25 11593 3662.02 11592.7 3660.15 11592.3 3658.28 11593.5 3656.49 11595.4 3656.14ZM11642.7 3647.35 11663 3643.58C11664.9 3643.23 11666.7 3644.47 11667 3646.33 11667.4 3648.2 11666.1 3649.99 11664.3 3650.34L11644 3654.11C11642.1 3654.45 11640.3 3653.22 11640 3651.36 11639.6 3649.49 11640.9 3647.7 11642.7 3647.35ZM11690 3638.56 11710.3 3634.79C11712.2 3634.44 11714 3635.67 11714.3 3637.54 11714.7 3639.41 11713.4 3641.2 11711.6 3641.55L11691.3 3645.31C11689.4 3645.66 11687.6 3644.43 11687.3 3642.56 11686.9 3640.7 11688.2 3638.9 11690 3638.56ZM11737.6 3630.56 11758 3627.48C11759.9 3627.19 11761.6 3628.49 11761.9 3630.36 11762.2 3632.24 11760.9 3633.99 11759 3634.28L11738.6 3637.36C11736.8 3637.64 11735 3636.35 11734.7 3634.47 11734.4 3632.59 11735.7 3630.84 11737.6 3630.56ZM11785.2 3623.37 11805.6 3620.29C11807.5 3620 11809.2 3621.3 11809.5 3623.17 11809.8 3625.05 11808.5 3626.8 11806.6 3627.08L11786.2 3630.17C11784.3 3630.45 11782.6 3629.16 11782.3 3627.28 11782 3625.4 11783.3 3623.65 11785.2 3623.37ZM11832.8 3616.18 11853.2 3613.1C11855 3612.81 11856.8 3614.1 11857.1 3615.98 11857.4 3617.86 11856.1 3619.61 11854.2 3619.89L11833.8 3622.98C11831.9 3623.26 11830.2 3621.97 11829.9 3620.09 11829.6 3618.21 11830.9 3616.46 11832.8 3616.18ZM11880.4 3608.99 11900.7 3605.91C11902.6 3605.62 11904.4 3606.91 11904.7 3608.79 11904.9 3610.67 11903.7 3612.42 11901.8 3612.7L11881.4 3615.79C11879.5 3616.07 11877.8 3614.78 11877.5 3612.9 11877.2 3611.02 11878.5 3609.27 11880.4 3608.99ZM11927.9 3601.8 11938.4 3600.22 11948.4 3598.92C11950.3 3598.67 11952 3600 11952.3 3601.88 11952.5 3603.76 11951.2 3605.49 11949.3 3605.73L11939.4 3607.02 11929 3608.59C11927.1 3608.88 11925.3 3607.59 11925.1 3605.71 11924.8 3603.83 11926.1 3602.08 11927.9 3601.8ZM11975.7 3595.38 11996.2 3592.73C11998 3592.48 11999.8 3593.81 12000 3595.69 12000.3 3597.58 11998.9 3599.3 11997 3599.55L11976.6 3602.2C11974.7 3602.44 11973 3601.11 11972.7 3599.23 11972.5 3597.35 11973.8 3595.62 11975.7 3595.38ZM12023.4 3589.19 12043.9 3586.54C12045.8 3586.3 12047.5 3587.62 12047.7 3589.51 12048 3591.39 12046.7 3593.11 12044.8 3593.36L12024.3 3596.01C12022.4 3596.25 12020.7 3594.93 12020.5 3593.04 12020.2 3591.16 12021.5 3589.44 12023.4 3589.19ZM12071.2 3583.01 12091.6 3580.35C12093.5 3580.11 12095.2 3581.44 12095.5 3583.32 12095.7 3585.2 12094.4 3586.93 12092.5 3587.17L12072 3589.82C12070.2 3590.07 12068.4 3588.74 12068.2 3586.86 12067.9 3584.97 12069.3 3583.25 12071.2 3583.01ZM12118.9 3576.82 12139.3 3574.17C12141.2 3573.92 12142.9 3575.25 12143.2 3577.13 12143.4 3579.02 12142.1 3580.74 12140.2 3580.98L12119.8 3583.64C12117.9 3583.88 12116.2 3582.55 12115.9 3580.67 12115.7 3578.79 12117 3577.06 12118.9 3576.82Z" fill="#000000" fill-rule="nonzero" fill-opacity="1"/></g><g clip-path="url(#clip24)"><path d="M11048.3 3803.17C11048.3 3809.24 11043.4 3814.17 11037.3 3814.17 11031.3 3814.17 11026.3 3809.24 11026.3 3803.17 11026.3 3797.09 11031.3 3792.17 11037.3 3792.17 11043.4 3792.17 11048.3 3797.09 11048.3 3803.17Z" stroke="#2F5597" stroke-width="3.4375" stroke-linecap="butt" stroke-linejoin="round" stroke-miterlimit="10" stroke-opacity="1" fill="#2F5597" fill-rule="nonzero" fill-opacity="1"/><path d="M11274.3 3731.17C11274.3 3737.24 11269.4 3742.17 11263.3 3742.17 11257.3 3742.17 11252.3 3737.24 11252.3 3731.17 11252.3 3725.09 11257.3 3720.17 11263.3 3720.17 11269.4 3720.17 11274.3 3725.09 11274.3 3731.17Z" stroke="#2F5597" stroke-width="3.4375" stroke-linecap="butt" stroke-linejoin="round" stroke-miterlimit="10" stroke-opacity="1" fill="#2F5597" fill-rule="nonzero" fill-opacity="1"/><path d="M11499.3 3679.17C11499.3 3685.24 11494.4 3690.17 11488.3 3690.17 11482.3 3690.17 11477.3 3685.24 11477.3 3679.17 11477.3 3673.09 11482.3 3668.17 11488.3 3668.17 11494.4 3668.17 11499.3 3673.09 11499.3 3679.17Z" stroke="#2F5597" stroke-width="3.4375" stroke-linecap="butt" stroke-linejoin="round" stroke-miterlimit="10" stroke-opacity="1" fill="#2F5597" fill-rule="nonzero" fill-opacity="1"/><path d="M11724.3 3637.17C11724.3 3643.24 11719.4 3648.17 11713.3 3648.17 11707.3 3648.17 11702.3 3643.24 11702.3 3637.17 11702.3 3631.09 11707.3 3626.17 11713.3 3626.17 11719.4 3626.17 11724.3 3631.09 11724.3 3637.17Z" stroke="#2F5597" stroke-width="3.4375" stroke-linecap="butt" stroke-linejoin="round" stroke-miterlimit="10" stroke-opacity="1" fill="#2F5597" fill-rule="nonzero" fill-opacity="1"/><path d="M11949.3 3603.17C11949.3 3609.24 11944.4 3614.17 11938.3 3614.17 11932.3 3614.17 11927.3 3609.24 11927.3 3603.17 11927.3 3597.09 11932.3 3592.17 11938.3 3592.17 11944.4 3592.17 11949.3 3597.09 11949.3 3603.17Z" stroke="#2F5597" stroke-width="3.4375" stroke-linecap="butt" stroke-linejoin="round" stroke-miterlimit="10" stroke-opacity="1" fill="#2F5597" fill-rule="nonzero" fill-opacity="1"/><path d="M12174.3 3574.17C12174.3 3580.24 12169.4 3585.17 12163.3 3585.17 12157.3 3585.17 12152.3 3580.24 12152.3 3574.17 12152.3 3568.09 12157.3 3563.17 12163.3 3563.17 12169.4 3563.17 12174.3 3568.09 12174.3 3574.17Z" stroke="#2F5597" stroke-width="3.4375" stroke-linecap="butt" stroke-linejoin="round" stroke-miterlimit="10" stroke-opacity="1" fill="#2F5597" fill-rule="nonzero" fill-opacity="1"/></g><g clip-path="url(#clip25)"><text fill="#595959" fill-opacity="1" font-family="Calibri,Calibri_MSFontService,sans-serif" font-style="normal" font-variant="normal" font-weight="400" font-stretch="normal" font-size="41" text-anchor="start" direction="ltr" writing-mode="lr-tb" unicode-bidi="normal" text-decoration="none" transform="matrix(1 0 0 1 10813.9 3893)">0.01</text></g><g clip-path="url(#clip26)"><text fill="#595959" fill-opacity="1" font-family="Calibri,Calibri_MSFontService,sans-serif" font-style="normal" font-variant="normal" font-weight="400" font-stretch="normal" font-size="41" text-anchor="start" direction="ltr" writing-mode="lr-tb" unicode-bidi="normal" text-decoration="none" transform="matrix(1 0 0 1 10813.9 3666)">0.10</text></g><g clip-path="url(#clip27)"><text fill="#595959" fill-opacity="1" font-family="Calibri,Calibri_MSFontService,sans-serif" font-style="normal" font-variant="normal" font-weight="400" font-stretch="normal" font-size="41" text-anchor="start" direction="ltr" writing-mode="lr-tb" unicode-bidi="normal" text-decoration="none" transform="matrix(1 0 0 1 10813.9 3440)">1.00</text></g><g clip-path="url(#clip28)"><text fill="#595959" fill-opacity="1" font-family="Calibri,Calibri_MSFontService,sans-serif" font-style="normal" font-variant="normal" font-weight="400" font-stretch="normal" font-size="41" text-anchor="start" direction="ltr" writing-mode="lr-tb" unicode-bidi="normal" text-decoration="none" transform="matrix(1 0 0 1 10793 3213)">10.00</text></g><g clip-path="url(#clip29)"><text fill="#595959" fill-opacity="1" font-family="Calibri,Calibri_MSFontService,sans-serif" font-style="normal" font-variant="normal" font-weight="400" font-stretch="normal" font-size="41" text-anchor="start" direction="ltr" writing-mode="lr-tb" unicode-bidi="normal" text-decoration="none" transform="matrix(1 0 0 1 10985.8 3948)">256^2</text></g><g clip-path="url(#clip30)"><text fill="#595959" fill-opacity="1" font-family="Calibri,Calibri_MSFontService,sans-serif" font-style="normal" font-variant="normal" font-weight="400" font-stretch="normal" font-size="41" text-anchor="start" direction="ltr" writing-mode="lr-tb" unicode-bidi="normal" text-decoration="none" transform="matrix(1 0 0 1 11211 3948)">384^2</text></g><g clip-path="url(#clip31)"><text fill="#595959" fill-opacity="1" font-family="Calibri,Calibri_MSFontService,sans-serif" font-style="normal" font-variant="normal" font-weight="400" font-stretch="normal" font-size="41" text-anchor="start" direction="ltr" writing-mode="lr-tb" unicode-bidi="normal" text-decoration="none" transform="matrix(1 0 0 1 11436.2 3948)">512^2</text></g><g clip-path="url(#clip32)"><text fill="#595959" fill-opacity="1" font-family="Calibri,Calibri_MSFontService,sans-serif" font-style="normal" font-variant="normal" font-weight="400" font-stretch="normal" font-size="41" text-anchor="start" direction="ltr" writing-mode="lr-tb" unicode-bidi="normal" text-decoration="none" transform="matrix(1 0 0 1 11661.4 3948)">640^2</text></g><g clip-path="url(#clip33)"><text fill="#595959" fill-opacity="1" font-family="Calibri,Calibri_MSFontService,sans-serif" font-style="normal" font-variant="normal" font-weight="400" font-stretch="normal" font-size="41" text-anchor="start" direction="ltr" writing-mode="lr-tb" unicode-bidi="normal" text-decoration="none" transform="matrix(1 0 0 1 11886.5 3948)">768^2</text></g><g clip-path="url(#clip34)"><text fill="#595959" fill-opacity="1" font-family="Calibri,Calibri_MSFontService,sans-serif" font-style="normal" font-variant="normal" font-weight="400" font-stretch="normal" font-size="41" text-anchor="start" direction="ltr" writing-mode="lr-tb" unicode-bidi="normal" text-decoration="none" transform="matrix(1 0 0 1 12111.7 3948)">896^2</text></g><g clip-path="url(#clip35)"><text fill="#595959" fill-opacity="1" font-family="Arial,Arial_MSFontService,sans-serif" font-style="normal" font-variant="normal" font-weight="400" font-stretch="normal" font-size="55" text-anchor="start" direction="ltr" writing-mode="lr-tb" unicode-bidi="normal" text-decoration="none" transform="matrix(6.12323e-17 -1 1 6.12323e-17 10774.7 3694)">Runtime (seconds)</text></g><g clip-path="url(#clip36)"><text fill="#595959" fill-opacity="1" font-family="Arial,Arial_MSFontService,sans-serif" font-style="normal" font-variant="normal" font-weight="400" font-stretch="normal" font-size="55" text-anchor="start" direction="ltr" writing-mode="lr-tb" unicode-bidi="normal" text-decoration="none" transform="matrix(1 0 0 1 11459 4010)">Mesh size </text></g><g clip-path="url(#clip37)"><rect x="10958.5" y="3064.5" width="1277" height="186" stroke="#7C7C7C" stroke-width="3.4375" stroke-linecap="butt" stroke-linejoin="round" stroke-miterlimit="10" stroke-opacity="1" fill="#FFFFFF" fill-opacity="1"/></g><g clip-path="url(#clip38)"><path d="M11000.5 3095.5 11116.5 3095.5" stroke="#548235" stroke-width="6.875" stroke-linecap="round" stroke-linejoin="round" stroke-miterlimit="10" stroke-opacity="1" fill="none" fill-rule="evenodd"/></g><g clip-path="url(#clip39)"><path d="M11066 3094.5C11066 3099.19 11062.2 3103 11057.5 3103 11052.8 3103 11049 3099.19 11049 3094.5 11049 3089.81 11052.8 3086 11057.5 3086 11062.2 3086 11066 3089.81 11066 3094.5Z" stroke="#548235" stroke-width="3.4375" stroke-linecap="butt" stroke-linejoin="round" stroke-miterlimit="10" stroke-opacity="1" fill="#548235" fill-rule="nonzero" fill-opacity="1"/></g><g clip-path="url(#clip40)"><text fill="#595959" fill-opacity="1" font-family="Arial,Arial_MSFontService,sans-serif" font-style="normal" font-variant="normal" font-weight="400" font-stretch="normal" font-size="37" text-anchor="start" direction="ltr" writing-mode="lr-tb" unicode-bidi="normal" text-decoration="none" transform="matrix(1 0 0 1 11129 3106)">GPU - 180B</text></g><g clip-path="url(#clip41)"><path d="M11426.5 3095.5 11542.5 3095.5" stroke="#92D050" stroke-width="4.58333" stroke-linecap="round" stroke-linejoin="round" stroke-miterlimit="10" stroke-opacity="1" fill="none" fill-rule="evenodd"/></g><g clip-path="url(#clip42)"><path d="M11475.9 3086.6 11492.9 3086.6 11492.9 3103.6 11475.9 3103.6Z" stroke="#000000" stroke-width="3.4375" stroke-linecap="butt" stroke-linejoin="round" stroke-miterlimit="10" stroke-opacity="1" fill="#92D050" fill-rule="nonzero" fill-opacity="1"/></g><g clip-path="url(#clip43)"><text fill="#595959" fill-opacity="1" font-family="Arial,Arial_MSFontService,sans-serif" font-style="normal" font-variant="normal" font-weight="400" font-stretch="normal" font-size="37" text-anchor="start" direction="ltr" writing-mode="lr-tb" unicode-bidi="normal" text-decoration="none" transform="matrix(1 0 0 1 11554.7 3106)">GPU - 60B</text></g><g clip-path="url(#clip44)"><path d="M11852.5 3095.5 11967.5 3095.5" stroke="#548235" stroke-width="4.58333" stroke-linecap="round" stroke-linejoin="round" stroke-miterlimit="10" stroke-opacity="1" fill="none" fill-rule="evenodd"/></g><g clip-path="url(#clip45)"><path d="M11917 3094.5C11917 3099.19 11913.2 3103 11908.5 3103 11903.8 3103 11900 3099.19 11900 3094.5 11900 3089.81 11903.8 3086 11908.5 3086 11913.2 3086 11917 3089.81 11917 3094.5Z" stroke="#000000" stroke-width="3.4375" stroke-linecap="butt" stroke-linejoin="round" stroke-miterlimit="10" stroke-opacity="1" fill="#548235" fill-rule="nonzero" fill-opacity="1"/></g><g clip-path="url(#clip46)"><text fill="#595959" fill-opacity="1" font-family="Arial,Arial_MSFontService,sans-serif" font-style="normal" font-variant="normal" font-weight="400" font-stretch="normal" font-size="37" text-anchor="start" direction="ltr" writing-mode="lr-tb" unicode-bidi="normal" text-decoration="none" transform="matrix(1 0 0 1 11980.4 3106)">GPU - 12B</text></g><g clip-path="url(#clip47)"><path d="M11000.5 3157.5 11116.5 3157.5" stroke="#0070C0" stroke-width="6.875" stroke-linecap="round" stroke-linejoin="round" stroke-miterlimit="10" stroke-opacity="1" fill="none" fill-rule="evenodd"/></g><g clip-path="url(#clip48)"><path d="M11066 3157C11066 3161.43 11062.2 3165.03 11057.5 3165.03 11052.8 3165.03 11049 3161.43 11049 3157 11049 3152.57 11052.8 3148.97 11057.5 3148.97 11062.2 3148.97 11066 3152.57 11066 3157Z" stroke="#2E75B6" stroke-width="3.4375" stroke-linecap="butt" stroke-linejoin="round" stroke-miterlimit="10" stroke-opacity="1" fill="#2E75B6" fill-rule="nonzero" fill-opacity="1"/></g><g clip-path="url(#clip49)"><text fill="#595959" fill-opacity="1" font-family="Arial,Arial_MSFontService,sans-serif" font-style="normal" font-variant="normal" font-weight="400" font-stretch="normal" font-size="37" text-anchor="start" direction="ltr" writing-mode="lr-tb" unicode-bidi="normal" text-decoration="none" transform="matrix(1 0 0 1 11129 3168)">FPGA - 180B</text></g><g clip-path="url(#clip50)"><path d="M11426.5 3157.5 11542.5 3157.5" stroke="#0070C0" stroke-width="6.875" stroke-linecap="round" stroke-linejoin="round" stroke-miterlimit="10" stroke-opacity="1" fill="none" fill-rule="evenodd"/></g><g clip-path="url(#clip51)"><path d="M11484.5 3148.5 11493.5 3166.5 11475.5 3166.5Z" stroke="#000000" stroke-width="3.4375" stroke-linecap="butt" stroke-linejoin="round" stroke-miterlimit="10" stroke-opacity="0.941176" fill="#0070C0" fill-rule="nonzero" fill-opacity="1"/></g><g clip-path="url(#clip52)"><text fill="#595959" fill-opacity="1" font-family="Arial,Arial_MSFontService,sans-serif" font-style="normal" font-variant="normal" font-weight="400" font-stretch="normal" font-size="37" text-anchor="start" direction="ltr" writing-mode="lr-tb" unicode-bidi="normal" text-decoration="none" transform="matrix(1 0 0 1 11554.7 3168)">FPGA - 60B</text></g><g clip-path="url(#clip53)"><path d="M11852.5 3157.5 11967.5 3157.5" stroke="#0070C0" stroke-width="6.875" stroke-linecap="round" stroke-linejoin="round" stroke-miterlimit="10" stroke-opacity="1" fill="none" fill-rule="evenodd"/></g><g clip-path="url(#clip54)"><path d="M11917 3157C11917 3161.43 11913.2 3165.03 11908.5 3165.03 11903.8 3165.03 11900 3161.43 11900 3157 11900 3152.57 11903.8 3148.97 11908.5 3148.97 11913.2 3148.97 11917 3152.57 11917 3157Z" stroke="#000000" stroke-width="3.4375" stroke-linecap="butt" stroke-linejoin="round" stroke-miterlimit="10" stroke-opacity="1" fill="#0070C0" fill-rule="nonzero" fill-opacity="1"/></g><g clip-path="url(#clip55)"><text fill="#595959" fill-opacity="1" font-family="Arial,Arial_MSFontService,sans-serif" font-style="normal" font-variant="normal" font-weight="400" font-stretch="normal" font-size="37" text-anchor="start" direction="ltr" writing-mode="lr-tb" unicode-bidi="normal" text-decoration="none" transform="matrix(1 0 0 1 11980.4 3168)">FPGA - 12B</text></g><g clip-path="url(#clip56)"><path d="M11000.5 3216.06 11021.1 3216.06C11023 3216.06 11024.6 3217.6 11024.6 3219.5 11024.6 3221.4 11023 3222.94 11021.1 3222.94L11000.5 3222.94C10998.6 3222.94 10997.1 3221.4 10997.1 3219.5 10997.1 3217.6 10998.6 3216.06 11000.5 3216.06ZM11048.6 3216.06 11069.2 3216.06C11071.1 3216.06 11072.7 3217.6 11072.7 3219.5 11072.7 3221.4 11071.1 3222.94 11069.2 3222.94L11048.6 3222.94C11046.7 3222.94 11045.2 3221.4 11045.2 3219.5 11045.2 3217.6 11046.7 3216.06 11048.6 3216.06ZM11096.8 3216.06 11116.5 3216.06C11118.4 3216.06 11119.9 3217.6 11119.9 3219.5 11119.9 3221.4 11118.4 3222.94 11116.5 3222.94L11096.8 3222.94C11094.9 3222.94 11093.3 3221.4 11093.3 3219.5 11093.3 3217.6 11094.9 3216.06 11096.8 3216.06Z" fill="#000000" fill-rule="nonzero" fill-opacity="1"/></g><g clip-path="url(#clip57)"><text fill="#595959" fill-opacity="1" font-family="Arial,Arial_MSFontService,sans-serif" font-style="normal" font-variant="normal" font-weight="400" font-stretch="normal" font-size="37" text-anchor="start" direction="ltr" writing-mode="lr-tb" unicode-bidi="normal" text-decoration="none" transform="matrix(1 0 0 1 11129 3230)">FPGA - Pred</text></g></g></svg>